<svg width="217" height="37" viewBox="0 0 217 37" fill="none" xmlns="http://www.w3.org/2000/svg">
<path d="M3.9371 5.56689L4.30938 5.15423C5.15409 4.30199 5.20454 4.25103 5.78975 3.76025C6.11909 3.50183 6.5621 3.16204 6.90234 2.91777C9.14942 1.36779 12.2805 0.264902 15.3666 0.10402C15.8293 0.0799811 16.2749 0.0778532 16.7011 0.0961325L16.82 0.101891C17.9247 0.188154 17.9909 0.193287 18.6618 0.303965C19.8465 0.540343 19.9171 0.554115 20.6214 0.763951C19.374 0.387599 17.8546 0.217952 16.1316 0.30772C11.3063 0.559373 6.38673 2.76703 3.9371 5.56689Z" fill="#118DF0"/>
<path d="M0.429291 12.3769L0.682278 11.4451C0.84864 10.9633 1.07033 10.32 1.26186 9.84777L1.34623 9.65246C3.24156 5.35208 10.3531 1.58943 17.3014 1.22735C20.5741 1.05683 23.2304 1.67081 24.9428 2.81627L25.767 3.41047C26.1968 3.76742 26.7658 4.24906 27.174 4.63055C25.4331 2.94635 22.1949 1.99082 18.0359 2.20767C10.4771 2.60168 2.73959 6.71964 0.753504 11.4051C0.613554 11.7357 0.5059 12.0596 0.429291 12.3769Z" fill="#118DF0"/>
<path d="M0.35287 19.4488C0.251099 18.8653 0.121164 18.0855 0.05557 17.4969L0.00312024 16.6647C-0.0249198 15.8882 0.13556 15.0588 0.50346 14.1907C2.64026 9.14942 10.9652 4.71896 19.0979 4.2949C24.4308 4.01708 28.3567 5.531 29.8251 8.0275C30.5823 9.45528 30.6439 9.57197 31.0238 10.5837C29.9221 7.58917 25.6847 5.70391 19.7228 6.01453C11.4296 6.44672 2.94019 10.9648 0.761203 16.1058C0.253102 17.3043 0.133056 18.431 0.35287 19.4488Z" fill="#118DF0"/>
<path d="M3.3473 25.8864C2.42548 24.5967 2.35025 24.4913 1.84753 23.5594C1.16193 22.2746 1.10622 20.745 1.81474 19.074C3.96556 13.9995 12.3454 9.53947 20.5317 9.11303C27.1892 8.76598 31.6685 11.193 31.9523 14.8409C31.9694 15.2794 32.0026 15.8636 31.9997 16.302C31.9784 16.7017 31.9638 17.2354 31.9256 17.6338C32.3217 13.6539 27.8417 10.9068 20.9212 11.2674C13.0258 11.6788 4.94346 15.9801 2.86912 20.8744C2.05495 22.795 2.28716 24.5219 3.3473 25.8864Z" fill="#118DF0"/>
<path d="M9.02164 30.4826L8.86241 30.4044C7.67346 29.7601 7.45941 29.6441 6.46912 28.938C4.66717 27.6079 4.02788 25.6482 4.98387 23.3927C6.86005 18.9662 14.1694 15.0761 21.3101 14.704C28.3596 14.3367 32.609 17.5349 30.9109 21.8756L30.7316 22.3174C30.0977 23.6746 30.0596 23.7559 29.5598 24.5693C29.7586 24.2534 29.9276 23.9332 30.0649 23.6095C31.7651 19.598 27.8973 16.6192 21.4254 16.9565C14.9539 17.2939 8.32902 20.8194 6.6286 24.8312C5.59712 27.2654 6.61545 29.3193 9.02164 30.4826Z" fill="#118DF0"/>
<path d="M17.2056 32.0039C21.4428 31.7831 25.7797 29.4747 26.8932 26.8483C28.0067 24.2217 25.4742 22.2718 21.2371 22.4927C17 22.7135 12.6628 25.0219 11.5494 27.6483C10.4362 30.2748 12.9686 32.2249 17.2056 32.0039C17.0826 32.0361 16.9587 32.0554 16.8342 32.0619C15.7927 32.0903 15.7519 32.0916 15.1733 32.0631C14.896 32.0411 14.5254 32.0183 14.2489 31.9888C10.4132 31.5727 8.34547 29.4338 9.50588 26.6962C10.8721 23.4731 16.1941 20.6406 21.3935 20.3695C26.5928 20.0986 29.7002 22.4918 28.334 25.7147C27.9015 26.7349 27.0725 27.7161 25.9769 28.5892C25.6342 28.8484 25.1723 29.1879 24.8185 29.4314C23.9682 29.9652 23.9682 29.9652 23.508 30.2108C22.6736 30.6317 22.6736 30.6317 22.2416 30.8153C21.4274 31.1412 21.4274 31.1412 20.9846 31.2879C20.5688 31.4151 19.795 31.6514 19.6984 31.6514C18.8231 31.8397 18.7888 31.8469 18.3352 31.913C17.3898 32.0298 17.3528 32.0346 16.8341 32.0619C16.9586 32.0554 17.0825 32.0361 17.2056 32.0039Z" fill="#118DF0"/>
<path d="M19.0212 30.4558C20.4292 30.3824 21.871 29.6153 22.2409 28.7423C22.6108 27.8693 21.7692 27.2214 20.361 27.2947C18.9527 27.3682 17.511 28.1353 17.1411 29.0083C16.7712 29.8811 17.6128 30.5293 19.0212 30.4558C18.7995 30.7988 18.5697 31.0857 18.3336 31.318C15.7547 31.4526 14.2133 30.2657 14.8909 28.6671C15.5686 27.0684 18.2084 25.6634 20.7873 25.5289C23.3663 25.3947 24.9077 26.5815 24.23 28.1801C23.5525 29.7788 20.9125 31.1837 18.3336 31.318C18.5697 31.0857 18.7996 30.7988 19.0212 30.4558Z" fill="#118DF0"/>
<path d="M53.0469 7.33398V30.084H50.0781V7.33398H53.0469ZM60.3594 7.33398V9.80273H42.7812V7.33398H60.3594ZM68.75 30.3965C67.5729 30.3965 66.5052 30.1986 65.5469 29.8027C64.599 29.3965 63.7812 28.8288 63.0938 28.0996C62.4167 27.3704 61.8958 26.5059 61.5312 25.5059C61.1667 24.5059 60.9844 23.4121 60.9844 22.2246V21.5684C60.9844 20.1934 61.1875 18.9694 61.5938 17.8965C62 16.8132 62.5521 15.8965 63.25 15.1465C63.9479 14.3965 64.7396 13.8288 65.625 13.4434C66.5104 13.0579 67.4271 12.8652 68.375 12.8652C69.5833 12.8652 70.625 13.0736 71.5 13.4902C72.3854 13.9069 73.1094 14.4902 73.6719 15.2402C74.2344 15.9798 74.651 16.8548 74.9219 17.8652C75.1927 18.8652 75.3281 19.959 75.3281 21.1465V22.4434H62.7031V20.084H72.4375V19.8652C72.3958 19.1152 72.2396 18.3861 71.9688 17.6777C71.7083 16.9694 71.2917 16.3861 70.7188 15.9277C70.1458 15.4694 69.3646 15.2402 68.375 15.2402C67.7188 15.2402 67.1146 15.3809 66.5625 15.6621C66.0104 15.9329 65.5365 16.3392 65.1406 16.8809C64.7448 17.4225 64.4375 18.084 64.2188 18.8652C64 19.6465 63.8906 20.5475 63.8906 21.5684V22.2246C63.8906 23.0267 64 23.7819 64.2188 24.4902C64.4479 25.1882 64.776 25.8027 65.2031 26.334C65.6406 26.8652 66.1667 27.2819 66.7812 27.584C67.4062 27.8861 68.1146 28.0371 68.9062 28.0371C69.9271 28.0371 70.7917 27.8288 71.5 27.4121C72.2083 26.9954 72.8281 26.4382 73.3594 25.7402L75.1094 27.1309C74.7448 27.6829 74.2812 28.209 73.7188 28.709C73.1562 29.209 72.4635 29.6152 71.6406 29.9277C70.8281 30.2402 69.8646 30.3965 68.75 30.3965ZM85.4688 28.0215C86.1562 28.0215 86.7917 27.8809 87.375 27.5996C87.9583 27.3184 88.4375 26.9329 88.8125 26.4434C89.1875 25.9434 89.401 25.3757 89.4531 24.7402H92.2031C92.151 25.7402 91.8125 26.6725 91.1875 27.5371C90.5729 28.3913 89.7656 29.084 88.7656 29.6152C87.7656 30.1361 86.6667 30.3965 85.4688 30.3965C84.1979 30.3965 83.0885 30.1725 82.1406 29.7246C81.2031 29.2767 80.4219 28.6621 79.7969 27.8809C79.1823 27.0996 78.7188 26.2038 78.4062 25.1934C78.1042 24.1725 77.9531 23.0944 77.9531 21.959V21.3027C77.9531 20.1673 78.1042 19.0944 78.4062 18.084C78.7188 17.0632 79.1823 16.1621 79.7969 15.3809C80.4219 14.5996 81.2031 13.985 82.1406 13.5371C83.0885 13.0892 84.1979 12.8652 85.4688 12.8652C86.7917 12.8652 87.9479 13.1361 88.9375 13.6777C89.9271 14.209 90.7031 14.9382 91.2656 15.8652C91.8385 16.7819 92.151 17.8236 92.2031 18.9902H89.4531C89.401 18.2923 89.2031 17.6621 88.8594 17.0996C88.526 16.5371 88.0677 16.0892 87.4844 15.7559C86.9115 15.4121 86.2396 15.2402 85.4688 15.2402C84.5833 15.2402 83.8385 15.4173 83.2344 15.7715C82.6406 16.1152 82.1667 16.584 81.8125 17.1777C81.4688 17.7611 81.2188 18.4121 81.0625 19.1309C80.9167 19.8392 80.8438 20.5632 80.8438 21.3027V21.959C80.8438 22.6986 80.9167 23.4277 81.0625 24.1465C81.2083 24.8652 81.4531 25.5163 81.7969 26.0996C82.151 26.6829 82.625 27.1517 83.2188 27.5059C83.8229 27.8496 84.5729 28.0215 85.4688 28.0215ZM98.3438 6.08398V30.084H95.4531V6.08398H98.3438ZM97.6562 20.9902L96.4531 20.9434C96.4635 19.7871 96.6354 18.7194 96.9688 17.7402C97.3021 16.7507 97.7708 15.8913 98.375 15.1621C98.9792 14.4329 99.6979 13.8704 100.531 13.4746C101.375 13.0684 102.307 12.8652 103.328 12.8652C104.161 12.8652 104.911 12.9798 105.578 13.209C106.245 13.4277 106.812 13.7819 107.281 14.2715C107.76 14.7611 108.125 15.3965 108.375 16.1777C108.625 16.9486 108.75 17.8913 108.75 19.0059V30.084H105.844V18.9746C105.844 18.0892 105.714 17.3809 105.453 16.8496C105.193 16.3079 104.812 15.9173 104.312 15.6777C103.812 15.4277 103.198 15.3027 102.469 15.3027C101.75 15.3027 101.094 15.4538 100.5 15.7559C99.9167 16.0579 99.4115 16.4746 98.9844 17.0059C98.5677 17.5371 98.2396 18.1465 98 18.834C97.7708 19.5111 97.6562 20.2298 97.6562 20.9902ZM122.922 25.5996C122.922 25.1829 122.828 24.7975 122.641 24.4434C122.464 24.0788 122.094 23.7507 121.531 23.459C120.979 23.1569 120.146 22.8965 119.031 22.6777C118.094 22.4798 117.245 22.2454 116.484 21.9746C115.734 21.7038 115.094 21.3757 114.562 20.9902C114.042 20.6048 113.641 20.1517 113.359 19.6309C113.078 19.11 112.938 18.5007 112.938 17.8027C112.938 17.1361 113.083 16.5059 113.375 15.9121C113.677 15.3184 114.099 14.7923 114.641 14.334C115.193 13.8757 115.854 13.5163 116.625 13.2559C117.396 12.9954 118.255 12.8652 119.203 12.8652C120.557 12.8652 121.714 13.1048 122.672 13.584C123.63 14.0632 124.365 14.7038 124.875 15.5059C125.385 16.2975 125.641 17.1777 125.641 18.1465H122.75C122.75 17.6777 122.609 17.2246 122.328 16.7871C122.057 16.3392 121.656 15.9694 121.125 15.6777C120.604 15.3861 119.964 15.2402 119.203 15.2402C118.401 15.2402 117.75 15.3652 117.25 15.6152C116.76 15.8548 116.401 16.1621 116.172 16.5371C115.953 16.9121 115.844 17.3079 115.844 17.7246C115.844 18.0371 115.896 18.3184 116 18.5684C116.115 18.8079 116.312 19.0319 116.594 19.2402C116.875 19.4382 117.271 19.6257 117.781 19.8027C118.292 19.9798 118.943 20.1569 119.734 20.334C121.12 20.6465 122.26 21.0215 123.156 21.459C124.052 21.8965 124.719 22.4329 125.156 23.0684C125.594 23.7038 125.812 24.4746 125.812 25.3809C125.812 26.1204 125.656 26.7975 125.344 27.4121C125.042 28.0267 124.599 28.5579 124.016 29.0059C123.443 29.4434 122.755 29.7871 121.953 30.0371C121.161 30.2767 120.271 30.3965 119.281 30.3965C117.792 30.3965 116.531 30.1309 115.5 29.5996C114.469 29.0684 113.688 28.3809 113.156 27.5371C112.625 26.6934 112.359 25.8027 112.359 24.8652H115.266C115.307 25.6569 115.536 26.2871 115.953 26.7559C116.37 27.2142 116.88 27.5423 117.484 27.7402C118.089 27.9277 118.688 28.0215 119.281 28.0215C120.073 28.0215 120.734 27.9173 121.266 27.709C121.807 27.5007 122.219 27.2142 122.5 26.8496C122.781 26.485 122.922 26.0684 122.922 25.5996ZM132.5 16.4277V36.584H129.594V13.1777H132.25L132.5 16.4277ZM143.891 21.4902V21.8184C143.891 23.0475 143.745 24.1882 143.453 25.2402C143.161 26.2819 142.734 27.1882 142.172 27.959C141.62 28.7298 140.938 29.3288 140.125 29.7559C139.312 30.1829 138.38 30.3965 137.328 30.3965C136.255 30.3965 135.307 30.2194 134.484 29.8652C133.661 29.5111 132.964 28.9954 132.391 28.3184C131.818 27.6413 131.359 26.8288 131.016 25.8809C130.682 24.9329 130.453 23.8652 130.328 22.6777V20.9277C130.453 19.6777 130.688 18.5579 131.031 17.5684C131.375 16.5788 131.828 15.735 132.391 15.0371C132.964 14.3288 133.656 13.7923 134.469 13.4277C135.281 13.0527 136.219 12.8652 137.281 12.8652C138.344 12.8652 139.286 13.0736 140.109 13.4902C140.932 13.8965 141.625 14.4798 142.188 15.2402C142.75 16.0007 143.172 16.9121 143.453 17.9746C143.745 19.0267 143.891 20.1986 143.891 21.4902ZM140.984 21.8184V21.4902C140.984 20.6465 140.896 19.8548 140.719 19.1152C140.542 18.3652 140.266 17.709 139.891 17.1465C139.526 16.5736 139.057 16.1257 138.484 15.8027C137.911 15.4694 137.229 15.3027 136.438 15.3027C135.708 15.3027 135.073 15.4277 134.531 15.6777C134 15.9277 133.547 16.2663 133.172 16.6934C132.797 17.11 132.49 17.5892 132.25 18.1309C132.021 18.6621 131.849 19.2142 131.734 19.7871V23.834C131.943 24.5632 132.234 25.2507 132.609 25.8965C132.984 26.5319 133.484 27.0475 134.109 27.4434C134.734 27.8288 135.521 28.0215 136.469 28.0215C137.25 28.0215 137.922 27.86 138.484 27.5371C139.057 27.2038 139.526 26.7507 139.891 26.1777C140.266 25.6048 140.542 24.9486 140.719 24.209C140.896 23.459 140.984 22.6621 140.984 21.8184ZM157.547 27.1934V18.4902C157.547 17.8236 157.411 17.2454 157.141 16.7559C156.88 16.2559 156.484 15.8704 155.953 15.5996C155.422 15.3288 154.766 15.1934 153.984 15.1934C153.255 15.1934 152.615 15.3184 152.062 15.5684C151.521 15.8184 151.094 16.1465 150.781 16.5527C150.479 16.959 150.328 17.3965 150.328 17.8652H147.438C147.438 17.2611 147.594 16.6621 147.906 16.0684C148.219 15.4746 148.667 14.9382 149.25 14.459C149.844 13.9694 150.552 13.584 151.375 13.3027C152.208 13.0111 153.135 12.8652 154.156 12.8652C155.385 12.8652 156.469 13.0736 157.406 13.4902C158.354 13.9069 159.094 14.5371 159.625 15.3809C160.167 16.2142 160.438 17.2611 160.438 18.5215V26.3965C160.438 26.959 160.484 27.5579 160.578 28.1934C160.682 28.8288 160.833 29.3757 161.031 29.834V30.084H158.016C157.87 29.7507 157.755 29.3079 157.672 28.7559C157.589 28.1934 157.547 27.6725 157.547 27.1934ZM158.047 19.834L158.078 21.8652H155.156C154.333 21.8652 153.599 21.9329 152.953 22.0684C152.307 22.1934 151.766 22.3861 151.328 22.6465C150.891 22.9069 150.557 23.235 150.328 23.6309C150.099 24.0163 149.984 24.4694 149.984 24.9902C149.984 25.5215 150.104 26.0059 150.344 26.4434C150.583 26.8809 150.943 27.2298 151.422 27.4902C151.911 27.7402 152.51 27.8652 153.219 27.8652C154.104 27.8652 154.885 27.6777 155.562 27.3027C156.24 26.9277 156.776 26.4694 157.172 25.9277C157.578 25.3861 157.797 24.86 157.828 24.3496L159.062 25.7402C158.99 26.1777 158.792 26.6621 158.469 27.1934C158.146 27.7246 157.714 28.235 157.172 28.7246C156.641 29.2038 156.005 29.6048 155.266 29.9277C154.536 30.2402 153.714 30.3965 152.797 30.3965C151.651 30.3965 150.646 30.1725 149.781 29.7246C148.927 29.2767 148.26 28.6777 147.781 27.9277C147.312 27.1673 147.078 26.3184 147.078 25.3809C147.078 24.4746 147.255 23.6777 147.609 22.9902C147.964 22.2923 148.474 21.7142 149.141 21.2559C149.807 20.7871 150.609 20.4329 151.547 20.1934C152.484 19.9538 153.531 19.834 154.688 19.834H158.047ZM167.875 16.7871V30.084H164.984V13.1777H167.719L167.875 16.7871ZM167.188 20.9902L165.984 20.9434C165.995 19.7871 166.167 18.7194 166.5 17.7402C166.833 16.7507 167.302 15.8913 167.906 15.1621C168.51 14.4329 169.229 13.8704 170.062 13.4746C170.906 13.0684 171.839 12.8652 172.859 12.8652C173.693 12.8652 174.443 12.9798 175.109 13.209C175.776 13.4277 176.344 13.7819 176.812 14.2715C177.292 14.7611 177.656 15.3965 177.906 16.1777C178.156 16.9486 178.281 17.8913 178.281 19.0059V30.084H175.375V18.9746C175.375 18.0892 175.245 17.3809 174.984 16.8496C174.724 16.3079 174.344 15.9173 173.844 15.6777C173.344 15.4277 172.729 15.3027 172 15.3027C171.281 15.3027 170.625 15.4538 170.031 15.7559C169.448 16.0579 168.943 16.4746 168.516 17.0059C168.099 17.5371 167.771 18.1465 167.531 18.834C167.302 19.5111 167.188 20.2298 167.188 20.9902ZM189.438 28.0215C190.125 28.0215 190.76 27.8809 191.344 27.5996C191.927 27.3184 192.406 26.9329 192.781 26.4434C193.156 25.9434 193.37 25.3757 193.422 24.7402H196.172C196.12 25.7402 195.781 26.6725 195.156 27.5371C194.542 28.3913 193.734 29.084 192.734 29.6152C191.734 30.1361 190.635 30.3965 189.438 30.3965C188.167 30.3965 187.057 30.1725 186.109 29.7246C185.172 29.2767 184.391 28.6621 183.766 27.8809C183.151 27.0996 182.688 26.2038 182.375 25.1934C182.073 24.1725 181.922 23.0944 181.922 21.959V21.3027C181.922 20.1673 182.073 19.0944 182.375 18.084C182.688 17.0632 183.151 16.1621 183.766 15.3809C184.391 14.5996 185.172 13.985 186.109 13.5371C187.057 13.0892 188.167 12.8652 189.438 12.8652C190.76 12.8652 191.917 13.1361 192.906 13.6777C193.896 14.209 194.672 14.9382 195.234 15.8652C195.807 16.7819 196.12 17.8236 196.172 18.9902H193.422C193.37 18.2923 193.172 17.6621 192.828 17.0996C192.495 16.5371 192.036 16.0892 191.453 15.7559C190.88 15.4121 190.208 15.2402 189.438 15.2402C188.552 15.2402 187.807 15.4173 187.203 15.7715C186.609 16.1152 186.135 16.584 185.781 17.1777C185.438 17.7611 185.188 18.4121 185.031 19.1309C184.885 19.8392 184.812 20.5632 184.812 21.3027V21.959C184.812 22.6986 184.885 23.4277 185.031 24.1465C185.177 24.8652 185.422 25.5163 185.766 26.0996C186.12 26.6829 186.594 27.1517 187.188 27.5059C187.792 27.8496 188.542 28.0215 189.438 28.0215ZM206.438 30.3965C205.26 30.3965 204.193 30.1986 203.234 29.8027C202.286 29.3965 201.469 28.8288 200.781 28.0996C200.104 27.3704 199.583 26.5059 199.219 25.5059C198.854 24.5059 198.672 23.4121 198.672 22.2246V21.5684C198.672 20.1934 198.875 18.9694 199.281 17.8965C199.688 16.8132 200.24 15.8965 200.938 15.1465C201.635 14.3965 202.427 13.8288 203.312 13.4434C204.198 13.0579 205.115 12.8652 206.062 12.8652C207.271 12.8652 208.312 13.0736 209.188 13.4902C210.073 13.9069 210.797 14.4902 211.359 15.2402C211.922 15.9798 212.339 16.8548 212.609 17.8652C212.88 18.8652 213.016 19.959 213.016 21.1465V22.4434H200.391V20.084H210.125V19.8652C210.083 19.1152 209.927 18.3861 209.656 17.6777C209.396 16.9694 208.979 16.3861 208.406 15.9277C207.833 15.4694 207.052 15.2402 206.062 15.2402C205.406 15.2402 204.802 15.3809 204.25 15.6621C203.698 15.9329 203.224 16.3392 202.828 16.8809C202.432 17.4225 202.125 18.084 201.906 18.8652C201.688 19.6465 201.578 20.5475 201.578 21.5684V22.2246C201.578 23.0267 201.688 23.7819 201.906 24.4902C202.135 25.1882 202.464 25.8027 202.891 26.334C203.328 26.8652 203.854 27.2819 204.469 27.584C205.094 27.8861 205.802 28.0371 206.594 28.0371C207.615 28.0371 208.479 27.8288 209.188 27.4121C209.896 26.9954 210.516 26.4382 211.047 25.7402L212.797 27.1309C212.432 27.6829 211.969 28.209 211.406 28.709C210.844 29.209 210.151 29.6152 209.328 29.9277C208.516 30.2402 207.552 30.3965 206.438 30.3965Z" fill="#118DF0"/>
</svg>
