<svg width="227" height="48" viewBox="0 0 227 48" fill="none" xmlns="http://www.w3.org/2000/svg">
<path d="M5.90567 8.22435L6.46409 7.60536C7.73115 6.327 7.80682 6.25057 8.68464 5.51439C9.17866 5.12677 9.84317 4.61708 10.3535 4.25068C13.7241 1.92571 18.4208 0.271376 23.0498 0.0300528C23.744 -0.00600488 24.4123 -0.00919672 25.0516 0.0182222L25.23 0.0268605C26.8871 0.156255 26.9864 0.163955 27.9927 0.32997C29.7697 0.684538 29.8756 0.705196 30.9322 1.01995C29.0611 0.455422 26.7819 0.200951 24.1975 0.335604C16.9594 0.713083 9.58011 4.02457 5.90567 8.22435Z" fill="#0E2F56"/>
<path d="M0.643951 18.4394L1.02343 17.0416C1.27298 16.319 1.60551 15.3541 1.8928 14.6457L2.01935 14.3527C4.86235 7.90214 15.5297 2.25817 25.9521 1.71505C30.8611 1.45927 34.8456 2.38024 37.4142 4.09843L38.6505 4.98973C39.2953 5.52515 40.1487 6.24762 40.761 6.81984C38.1497 4.29355 33.2923 2.86026 27.0539 3.18553C15.7157 3.77654 4.1094 9.95348 1.13027 16.9817C0.920347 17.4775 0.758866 17.9634 0.643951 18.4394Z" fill="#0E2F56"/>
<path d="M0.529304 29.0475C0.376649 28.1723 0.181746 27.0025 0.083355 26.1197L0.00468036 24.8714C-0.0373797 23.7066 0.203339 22.4625 0.75519 21.1604C3.96039 13.5985 16.4477 6.95276 28.6468 6.31668C36.6461 5.89995 42.5351 8.17084 44.7376 11.9156C45.8735 14.0573 45.9658 14.2323 46.5357 15.7499C44.8832 11.2581 38.527 8.43019 29.5842 8.89612C17.1444 9.54441 4.41029 16.3216 1.1418 24.033C0.379653 25.8308 0.199584 27.5209 0.529304 29.0475Z" fill="#0E2F56"/>
<path d="M5.02094 38.7034C3.63822 36.7689 3.52537 36.6108 2.77129 35.213C1.74289 33.2858 1.65933 30.9914 2.7221 28.4848C5.94833 20.8731 18.5181 14.1831 30.7976 13.5434C40.7838 13.0228 47.5027 16.6634 47.9284 22.1353C47.9541 22.793 48.0039 23.6692 47.9996 24.3269C47.9677 24.9264 47.9457 25.727 47.8884 26.3246C48.4825 20.3548 41.7625 16.234 31.3817 16.7749C19.5386 17.392 7.41517 23.8441 4.30367 31.1854C3.08242 34.0664 3.43074 36.6568 5.02094 38.7034Z" fill="#0E2F56"/>
<path d="M13.5325 45.5981L13.2936 45.4808C11.5102 44.5143 11.1891 44.3402 9.70368 43.2812C7.00076 41.286 6.04183 38.3464 7.47581 34.9632C10.2901 28.3235 21.2541 22.4883 31.9651 21.9302C42.5395 21.3792 48.9134 26.1766 46.3664 32.6876L46.0975 33.3503C45.1466 35.3861 45.0894 35.508 44.3398 36.7281C44.638 36.2543 44.8914 35.7739 45.0974 35.2885C47.6477 29.2711 41.846 24.803 32.138 25.3089C22.4308 25.815 12.4935 31.1033 9.9429 37.121C8.39569 40.7722 9.92319 43.8531 13.5325 45.5981Z" fill="#0E2F56"/>
<path d="M25.8084 47.8802C32.1642 47.5489 38.6696 44.0864 40.3398 40.1468C42.01 36.2069 38.2113 33.2821 31.8557 33.6134C25.4999 33.9446 18.9941 37.4071 17.3241 41.3468C15.6543 45.2865 19.4528 48.2117 25.8084 47.8802C25.6238 47.9285 25.438 47.9574 25.2513 47.9671C23.6891 48.0098 23.6279 48.0117 22.76 47.969C22.3439 47.936 21.7881 47.9018 21.3733 47.8575C15.6197 47.2334 12.5182 44.025 14.2588 39.9186C16.3081 35.084 24.2911 30.8352 32.0902 30.4286C39.8892 30.0222 44.5503 33.6121 42.501 38.4464C41.8523 39.9766 40.6087 41.4484 38.9653 42.7581C38.4512 43.1469 37.7584 43.6562 37.2277 44.0215C35.9522 44.8221 35.9522 44.8221 35.262 45.1905C34.0103 45.8219 34.0103 45.8219 33.3623 46.0972C32.1411 46.5861 32.1411 46.5861 31.477 46.8062C30.8532 46.997 29.6924 47.3514 29.5476 47.3514C28.2346 47.6338 28.1831 47.6447 27.5028 47.7439C26.0846 47.9191 26.0292 47.9262 25.2511 47.9671C25.438 47.9574 25.6237 47.9285 25.8084 47.8802Z" fill="#0E2F56"/>
<path d="M28.5318 45.558C30.6438 45.448 32.8065 44.2973 33.3614 42.9878C33.9162 41.6782 32.6539 40.7064 30.5415 40.8164C28.4291 40.9267 26.2666 42.0773 25.7117 43.3868C25.1569 44.696 26.4192 45.6682 28.5318 45.558C28.1993 46.0726 27.8545 46.5028 27.5004 46.8514C23.632 47.0533 21.32 45.2729 22.3364 42.8749C23.353 40.4769 27.3126 38.3694 31.181 38.1677C35.0494 37.9664 37.3616 39.7465 36.345 42.1445C35.3288 44.5426 31.3688 46.6499 27.5004 46.8514C27.8545 46.5028 28.1994 46.0726 28.5318 45.558Z" fill="#0E2F56"/>
<path d="M64.0469 14.25V37H61.0781V14.25H64.0469ZM71.3594 14.25V16.7188H53.7812V14.25H71.3594ZM79.75 37.3125C78.5729 37.3125 77.5052 37.1146 76.5469 36.7188C75.599 36.3125 74.7812 35.7448 74.0938 35.0156C73.4167 34.2865 72.8958 33.4219 72.5312 32.4219C72.1667 31.4219 71.9844 30.3281 71.9844 29.1406V28.4844C71.9844 27.1094 72.1875 25.8854 72.5938 24.8125C73 23.7292 73.5521 22.8125 74.25 22.0625C74.9479 21.3125 75.7396 20.7448 76.625 20.3594C77.5104 19.974 78.4271 19.7812 79.375 19.7812C80.5833 19.7812 81.625 19.9896 82.5 20.4062C83.3854 20.8229 84.1094 21.4062 84.6719 22.1562C85.2344 22.8958 85.651 23.7708 85.9219 24.7812C86.1927 25.7812 86.3281 26.875 86.3281 28.0625V29.3594H73.7031V27H83.4375V26.7812C83.3958 26.0312 83.2396 25.3021 82.9688 24.5938C82.7083 23.8854 82.2917 23.3021 81.7188 22.8438C81.1458 22.3854 80.3646 22.1562 79.375 22.1562C78.7188 22.1562 78.1146 22.2969 77.5625 22.5781C77.0104 22.849 76.5365 23.2552 76.1406 23.7969C75.7448 24.3385 75.4375 25 75.2188 25.7812C75 26.5625 74.8906 27.4635 74.8906 28.4844V29.1406C74.8906 29.9427 75 30.6979 75.2188 31.4062C75.4479 32.1042 75.776 32.7188 76.2031 33.25C76.6406 33.7812 77.1667 34.1979 77.7812 34.5C78.4062 34.8021 79.1146 34.9531 79.9062 34.9531C80.9271 34.9531 81.7917 34.7448 82.5 34.3281C83.2083 33.9115 83.8281 33.3542 84.3594 32.6562L86.1094 34.0469C85.7448 34.599 85.2812 35.125 84.7188 35.625C84.1562 36.125 83.4635 36.5312 82.6406 36.8438C81.8281 37.1562 80.8646 37.3125 79.75 37.3125ZM96.4688 34.9375C97.1562 34.9375 97.7917 34.7969 98.375 34.5156C98.9583 34.2344 99.4375 33.849 99.8125 33.3594C100.188 32.8594 100.401 32.2917 100.453 31.6562H103.203C103.151 32.6562 102.812 33.5885 102.188 34.4531C101.573 35.3073 100.766 36 99.7656 36.5312C98.7656 37.0521 97.6667 37.3125 96.4688 37.3125C95.1979 37.3125 94.0885 37.0885 93.1406 36.6406C92.2031 36.1927 91.4219 35.5781 90.7969 34.7969C90.1823 34.0156 89.7188 33.1198 89.4062 32.1094C89.1042 31.0885 88.9531 30.0104 88.9531 28.875V28.2188C88.9531 27.0833 89.1042 26.0104 89.4062 25C89.7188 23.9792 90.1823 23.0781 90.7969 22.2969C91.4219 21.5156 92.2031 20.901 93.1406 20.4531C94.0885 20.0052 95.1979 19.7812 96.4688 19.7812C97.7917 19.7812 98.9479 20.0521 99.9375 20.5938C100.927 21.125 101.703 21.8542 102.266 22.7812C102.839 23.6979 103.151 24.7396 103.203 25.9062H100.453C100.401 25.2083 100.203 24.5781 99.8594 24.0156C99.526 23.4531 99.0677 23.0052 98.4844 22.6719C97.9115 22.3281 97.2396 22.1562 96.4688 22.1562C95.5833 22.1562 94.8385 22.3333 94.2344 22.6875C93.6406 23.0312 93.1667 23.5 92.8125 24.0938C92.4688 24.6771 92.2188 25.3281 92.0625 26.0469C91.9167 26.7552 91.8438 27.4792 91.8438 28.2188V28.875C91.8438 29.6146 91.9167 30.3438 92.0625 31.0625C92.2083 31.7812 92.4531 32.4323 92.7969 33.0156C93.151 33.599 93.625 34.0677 94.2188 34.4219C94.8229 34.7656 95.5729 34.9375 96.4688 34.9375ZM109.344 13V37H106.453V13H109.344ZM108.656 27.9062L107.453 27.8594C107.464 26.7031 107.635 25.6354 107.969 24.6562C108.302 23.6667 108.771 22.8073 109.375 22.0781C109.979 21.349 110.698 20.7865 111.531 20.3906C112.375 19.9844 113.307 19.7812 114.328 19.7812C115.161 19.7812 115.911 19.8958 116.578 20.125C117.245 20.3438 117.812 20.6979 118.281 21.1875C118.76 21.6771 119.125 22.3125 119.375 23.0938C119.625 23.8646 119.75 24.8073 119.75 25.9219V37H116.844V25.8906C116.844 25.0052 116.714 24.2969 116.453 23.7656C116.193 23.224 115.812 22.8333 115.312 22.5938C114.812 22.3438 114.198 22.2188 113.469 22.2188C112.75 22.2188 112.094 22.3698 111.5 22.6719C110.917 22.974 110.411 23.3906 109.984 23.9219C109.568 24.4531 109.24 25.0625 109 25.75C108.771 26.4271 108.656 27.1458 108.656 27.9062ZM133.922 32.5156C133.922 32.099 133.828 31.7135 133.641 31.3594C133.464 30.9948 133.094 30.6667 132.531 30.375C131.979 30.0729 131.146 29.8125 130.031 29.5938C129.094 29.3958 128.245 29.1615 127.484 28.8906C126.734 28.6198 126.094 28.2917 125.562 27.9062C125.042 27.5208 124.641 27.0677 124.359 26.5469C124.078 26.026 123.938 25.4167 123.938 24.7188C123.938 24.0521 124.083 23.4219 124.375 22.8281C124.677 22.2344 125.099 21.7083 125.641 21.25C126.193 20.7917 126.854 20.4323 127.625 20.1719C128.396 19.9115 129.255 19.7812 130.203 19.7812C131.557 19.7812 132.714 20.0208 133.672 20.5C134.63 20.9792 135.365 21.6198 135.875 22.4219C136.385 23.2135 136.641 24.0938 136.641 25.0625H133.75C133.75 24.5938 133.609 24.1406 133.328 23.7031C133.057 23.2552 132.656 22.8854 132.125 22.5938C131.604 22.3021 130.964 22.1562 130.203 22.1562C129.401 22.1562 128.75 22.2812 128.25 22.5312C127.76 22.7708 127.401 23.0781 127.172 23.4531C126.953 23.8281 126.844 24.224 126.844 24.6406C126.844 24.9531 126.896 25.2344 127 25.4844C127.115 25.724 127.312 25.9479 127.594 26.1562C127.875 26.3542 128.271 26.5417 128.781 26.7188C129.292 26.8958 129.943 27.0729 130.734 27.25C132.12 27.5625 133.26 27.9375 134.156 28.375C135.052 28.8125 135.719 29.349 136.156 29.9844C136.594 30.6198 136.812 31.3906 136.812 32.2969C136.812 33.0365 136.656 33.7135 136.344 34.3281C136.042 34.9427 135.599 35.474 135.016 35.9219C134.443 36.3594 133.755 36.7031 132.953 36.9531C132.161 37.1927 131.271 37.3125 130.281 37.3125C128.792 37.3125 127.531 37.0469 126.5 36.5156C125.469 35.9844 124.688 35.2969 124.156 34.4531C123.625 33.6094 123.359 32.7188 123.359 31.7812H126.266C126.307 32.5729 126.536 33.2031 126.953 33.6719C127.37 34.1302 127.88 34.4583 128.484 34.6562C129.089 34.8438 129.688 34.9375 130.281 34.9375C131.073 34.9375 131.734 34.8333 132.266 34.625C132.807 34.4167 133.219 34.1302 133.5 33.7656C133.781 33.401 133.922 32.9844 133.922 32.5156ZM143.5 23.3438V43.5H140.594V20.0938H143.25L143.5 23.3438ZM154.891 28.4062V28.7344C154.891 29.9635 154.745 31.1042 154.453 32.1562C154.161 33.1979 153.734 34.1042 153.172 34.875C152.62 35.6458 151.938 36.2448 151.125 36.6719C150.312 37.099 149.38 37.3125 148.328 37.3125C147.255 37.3125 146.307 37.1354 145.484 36.7812C144.661 36.4271 143.964 35.9115 143.391 35.2344C142.818 34.5573 142.359 33.7448 142.016 32.7969C141.682 31.849 141.453 30.7812 141.328 29.5938V27.8438C141.453 26.5938 141.688 25.474 142.031 24.4844C142.375 23.4948 142.828 22.651 143.391 21.9531C143.964 21.2448 144.656 20.7083 145.469 20.3438C146.281 19.9688 147.219 19.7812 148.281 19.7812C149.344 19.7812 150.286 19.9896 151.109 20.4062C151.932 20.8125 152.625 21.3958 153.188 22.1562C153.75 22.9167 154.172 23.8281 154.453 24.8906C154.745 25.9427 154.891 27.1146 154.891 28.4062ZM151.984 28.7344V28.4062C151.984 27.5625 151.896 26.7708 151.719 26.0312C151.542 25.2812 151.266 24.625 150.891 24.0625C150.526 23.4896 150.057 23.0417 149.484 22.7188C148.911 22.3854 148.229 22.2188 147.438 22.2188C146.708 22.2188 146.073 22.3438 145.531 22.5938C145 22.8438 144.547 23.1823 144.172 23.6094C143.797 24.026 143.49 24.5052 143.25 25.0469C143.021 25.5781 142.849 26.1302 142.734 26.7031V30.75C142.943 31.4792 143.234 32.1667 143.609 32.8125C143.984 33.4479 144.484 33.9635 145.109 34.3594C145.734 34.7448 146.521 34.9375 147.469 34.9375C148.25 34.9375 148.922 34.776 149.484 34.4531C150.057 34.1198 150.526 33.6667 150.891 33.0938C151.266 32.5208 151.542 31.8646 151.719 31.125C151.896 30.375 151.984 29.5781 151.984 28.7344ZM168.547 34.1094V25.4062C168.547 24.7396 168.411 24.1615 168.141 23.6719C167.88 23.1719 167.484 22.7865 166.953 22.5156C166.422 22.2448 165.766 22.1094 164.984 22.1094C164.255 22.1094 163.615 22.2344 163.062 22.4844C162.521 22.7344 162.094 23.0625 161.781 23.4688C161.479 23.875 161.328 24.3125 161.328 24.7812H158.438C158.438 24.1771 158.594 23.5781 158.906 22.9844C159.219 22.3906 159.667 21.8542 160.25 21.375C160.844 20.8854 161.552 20.5 162.375 20.2188C163.208 19.9271 164.135 19.7812 165.156 19.7812C166.385 19.7812 167.469 19.9896 168.406 20.4062C169.354 20.8229 170.094 21.4531 170.625 22.2969C171.167 23.1302 171.438 24.1771 171.438 25.4375V33.3125C171.438 33.875 171.484 34.474 171.578 35.1094C171.682 35.7448 171.833 36.2917 172.031 36.75V37H169.016C168.87 36.6667 168.755 36.224 168.672 35.6719C168.589 35.1094 168.547 34.5885 168.547 34.1094ZM169.047 26.75L169.078 28.7812H166.156C165.333 28.7812 164.599 28.849 163.953 28.9844C163.307 29.1094 162.766 29.3021 162.328 29.5625C161.891 29.8229 161.557 30.151 161.328 30.5469C161.099 30.9323 160.984 31.3854 160.984 31.9062C160.984 32.4375 161.104 32.9219 161.344 33.3594C161.583 33.7969 161.943 34.1458 162.422 34.4062C162.911 34.6562 163.51 34.7812 164.219 34.7812C165.104 34.7812 165.885 34.5938 166.562 34.2188C167.24 33.8438 167.776 33.3854 168.172 32.8438C168.578 32.3021 168.797 31.776 168.828 31.2656L170.062 32.6562C169.99 33.0938 169.792 33.5781 169.469 34.1094C169.146 34.6406 168.714 35.151 168.172 35.6406C167.641 36.1198 167.005 36.5208 166.266 36.8438C165.536 37.1562 164.714 37.3125 163.797 37.3125C162.651 37.3125 161.646 37.0885 160.781 36.6406C159.927 36.1927 159.26 35.5938 158.781 34.8438C158.312 34.0833 158.078 33.2344 158.078 32.2969C158.078 31.3906 158.255 30.5938 158.609 29.9062C158.964 29.2083 159.474 28.6302 160.141 28.1719C160.807 27.7031 161.609 27.349 162.547 27.1094C163.484 26.8698 164.531 26.75 165.688 26.75H169.047ZM178.875 23.7031V37H175.984V20.0938H178.719L178.875 23.7031ZM178.188 27.9062L176.984 27.8594C176.995 26.7031 177.167 25.6354 177.5 24.6562C177.833 23.6667 178.302 22.8073 178.906 22.0781C179.51 21.349 180.229 20.7865 181.062 20.3906C181.906 19.9844 182.839 19.7812 183.859 19.7812C184.693 19.7812 185.443 19.8958 186.109 20.125C186.776 20.3438 187.344 20.6979 187.812 21.1875C188.292 21.6771 188.656 22.3125 188.906 23.0938C189.156 23.8646 189.281 24.8073 189.281 25.9219V37H186.375V25.8906C186.375 25.0052 186.245 24.2969 185.984 23.7656C185.724 23.224 185.344 22.8333 184.844 22.5938C184.344 22.3438 183.729 22.2188 183 22.2188C182.281 22.2188 181.625 22.3698 181.031 22.6719C180.448 22.974 179.943 23.3906 179.516 23.9219C179.099 24.4531 178.771 25.0625 178.531 25.75C178.302 26.4271 178.188 27.1458 178.188 27.9062ZM200.438 34.9375C201.125 34.9375 201.76 34.7969 202.344 34.5156C202.927 34.2344 203.406 33.849 203.781 33.3594C204.156 32.8594 204.37 32.2917 204.422 31.6562H207.172C207.12 32.6562 206.781 33.5885 206.156 34.4531C205.542 35.3073 204.734 36 203.734 36.5312C202.734 37.0521 201.635 37.3125 200.438 37.3125C199.167 37.3125 198.057 37.0885 197.109 36.6406C196.172 36.1927 195.391 35.5781 194.766 34.7969C194.151 34.0156 193.688 33.1198 193.375 32.1094C193.073 31.0885 192.922 30.0104 192.922 28.875V28.2188C192.922 27.0833 193.073 26.0104 193.375 25C193.688 23.9792 194.151 23.0781 194.766 22.2969C195.391 21.5156 196.172 20.901 197.109 20.4531C198.057 20.0052 199.167 19.7812 200.438 19.7812C201.76 19.7812 202.917 20.0521 203.906 20.5938C204.896 21.125 205.672 21.8542 206.234 22.7812C206.807 23.6979 207.12 24.7396 207.172 25.9062H204.422C204.37 25.2083 204.172 24.5781 203.828 24.0156C203.495 23.4531 203.036 23.0052 202.453 22.6719C201.88 22.3281 201.208 22.1562 200.438 22.1562C199.552 22.1562 198.807 22.3333 198.203 22.6875C197.609 23.0312 197.135 23.5 196.781 24.0938C196.438 24.6771 196.188 25.3281 196.031 26.0469C195.885 26.7552 195.812 27.4792 195.812 28.2188V28.875C195.812 29.6146 195.885 30.3438 196.031 31.0625C196.177 31.7812 196.422 32.4323 196.766 33.0156C197.12 33.599 197.594 34.0677 198.188 34.4219C198.792 34.7656 199.542 34.9375 200.438 34.9375ZM217.438 37.3125C216.26 37.3125 215.193 37.1146 214.234 36.7188C213.286 36.3125 212.469 35.7448 211.781 35.0156C211.104 34.2865 210.583 33.4219 210.219 32.4219C209.854 31.4219 209.672 30.3281 209.672 29.1406V28.4844C209.672 27.1094 209.875 25.8854 210.281 24.8125C210.688 23.7292 211.24 22.8125 211.938 22.0625C212.635 21.3125 213.427 20.7448 214.312 20.3594C215.198 19.974 216.115 19.7812 217.062 19.7812C218.271 19.7812 219.312 19.9896 220.188 20.4062C221.073 20.8229 221.797 21.4062 222.359 22.1562C222.922 22.8958 223.339 23.7708 223.609 24.7812C223.88 25.7812 224.016 26.875 224.016 28.0625V29.3594H211.391V27H221.125V26.7812C221.083 26.0312 220.927 25.3021 220.656 24.5938C220.396 23.8854 219.979 23.3021 219.406 22.8438C218.833 22.3854 218.052 22.1562 217.062 22.1562C216.406 22.1562 215.802 22.2969 215.25 22.5781C214.698 22.849 214.224 23.2552 213.828 23.7969C213.432 24.3385 213.125 25 212.906 25.7812C212.688 26.5625 212.578 27.4635 212.578 28.4844V29.1406C212.578 29.9427 212.688 30.6979 212.906 31.4062C213.135 32.1042 213.464 32.7188 213.891 33.25C214.328 33.7812 214.854 34.1979 215.469 34.5C216.094 34.8021 216.802 34.9531 217.594 34.9531C218.615 34.9531 219.479 34.7448 220.188 34.3281C220.896 33.9115 221.516 33.3542 222.047 32.6562L223.797 34.0469C223.432 34.599 222.969 35.125 222.406 35.625C221.844 36.125 221.151 36.5312 220.328 36.8438C219.516 37.1562 218.552 37.3125 217.438 37.3125Z" fill="#ECECDA"/>
</svg>
