<svg width="48" height="48" viewBox="0 0 48 48" fill="none" xmlns="http://www.w3.org/2000/svg">
<circle cx="24" cy="24" r="24" fill="#118DF0"/>
<path d="M32.0011 14.1538C32.0011 15.7859 31.1581 17.3512 29.6576 18.5053C28.1571 19.6593 26.122 20.3077 24 20.3077C21.878 20.3077 19.8429 19.6593 18.3424 18.5053C16.8419 17.3512 15.9989 15.7859 15.9989 14.1538C15.9989 12.5217 16.8419 10.9565 18.3424 9.80242C19.8429 8.64835 21.878 8 24 8C26.122 8 28.1571 8.64835 29.6576 9.80242C31.1581 10.9565 32.0011 12.5217 32.0011 14.1538ZM8 37.3218C8.06856 34.0929 9.78443 31.014 12.7775 28.7492C15.7707 26.4844 19.8012 25.2151 24 25.2151C28.1988 25.2151 32.2293 26.4844 35.2225 28.7492C38.2156 31.014 39.9314 34.0929 40 37.3218C34.9804 39.0921 29.5221 40.0057 24 40C18.2904 40 12.871 39.0416 8 37.3218Z" fill="white"/>
</svg>
