<svg width="517" height="520" viewBox="0 0 517 520" fill="none" xmlns="http://www.w3.org/2000/svg">
<mask id="mask0_122_581" style="mask-type:luminance" maskUnits="userSpaceOnUse" x="0" y="0" width="517" height="520">
<path d="M375.925 32.8647C375.226 32.4649 374.566 32.1051 373.926 31.7852L372.087 30.7057L373.187 31.2855L373.387 31.3854L376.185 32.9047C376.32 32.9546 376.448 33.0218 376.565 33.1046L377.525 33.6844L375.885 32.8048M366.07 27.7871L363.411 26.4677L365.05 27.2473L365.67 27.5272L368.629 29.0065L366.07 27.7871ZM360.693 25.1883L358.693 24.2687L357.434 23.729L353.436 21.9698L352.436 21.51C353.556 21.9498 354.715 22.4896 355.195 22.6895L354.675 22.4696L356.035 23.0893L356.474 23.2692L357.834 23.789H357.714L360.253 24.9484L360.513 25.0684L363.511 26.5477C362.632 26.1279 361.732 25.6881 360.792 25.2683M507.684 201.187C507.364 199.827 507.025 198.468 506.685 197.188L507.824 200.987V201.187C507.846 201.279 507.846 201.374 507.824 201.466V201.247M505.125 191.591L503.746 186.693C502.867 183.995 501.747 180.916 500.588 177.817L499.708 175.119L497.089 168.482C499.655 174.42 501.878 180.5 503.746 186.693L505.745 193.37L505.145 191.591M404.232 50.6165C400.834 48.1976 397.395 45.8387 393.917 43.5798L393.577 43.3399C397.196 45.6988 400.774 48.1376 404.272 50.6365M391.218 41.7806L390.878 41.5407C390.659 41.3808 390.659 41.3808 390.619 41.3808C391.318 41.8606 391.938 42.2404 392.618 42.6402L393.657 43.3599L391.218 41.7806ZM391.738 42.1204C395.976 44.8192 400.134 47.6179 404.232 50.5565C400.234 47.7378 395.616 44.7392 391.738 42.1204ZM515.521 245.686V245.966V245.706M515.96 251.703V251.903C515.951 251.837 515.951 251.769 515.96 251.703ZM515.96 251.383V250.444V250.284C515.96 250.764 515.96 251.263 516.06 251.683V251.363M515.9 249.044C515.891 248.925 515.891 248.804 515.9 248.685C515.9 248.265 515.9 247.845 515.9 247.425C515.9 248.045 515.9 248.685 516.04 249.304V249.044M513.881 230.773L513.582 228.094L514.141 231.852C514.261 232.632 514.321 233.432 514.421 234.211V234.411C514.261 233.192 514.081 231.992 513.881 230.793M507.884 201.247C507.941 201.092 507.941 200.922 507.884 200.767C508.084 201.806 508.344 202.886 508.584 204.005L507.784 201.247M67.5486 66.5091C65.5496 68.2283 63.6504 69.9675 61.7713 71.7067C63.7704 69.8476 65.4296 68.2883 67.5486 66.5091ZM143.054 60.0921C143.313 59.7323 143.573 59.3924 143.813 59.0126C144.053 58.6328 144.553 57.7532 144.953 57.1335L143.293 56.9136L140.635 58.0331L139.355 60.7318H141.714L143.054 60.1521M138.736 56.6337L138.935 56.5138L139.535 55.4543C139.095 55.6741 138.676 55.974 138.216 56.1939C137.94 56.3075 137.651 56.3881 137.356 56.4338C136.553 56.6844 135.777 57.0124 135.037 57.4133C134.677 57.6132 134.258 57.7932 133.878 57.9731C133.998 58.213 133.878 58.5528 134.178 58.7127C134.467 58.778 134.768 58.778 135.057 58.7127C136.405 58.3002 137.656 57.6203 138.736 56.7137M185.474 19.0512L187.913 18.5114V17.292L185.494 17.192H183.655L181.656 18.6114L180.416 19.7508H183.195L185.414 18.9112M385.321 38.2422C384.421 37.6825 383.522 37.2027 382.622 36.683L382.123 36.523L383.782 37.5226C384.981 38.2223 386.121 38.9419 387.3 39.6616H387.54C387.18 39.3817 386.76 39.1618 386.401 38.9019C385.681 38.4022 385.681 38.4022 385.261 38.1423M372.947 30.9856L370.268 29.7862L371.767 30.5658L370.168 29.7462L369.988 29.6462L371.048 30.206L370.708 30.046C368.509 28.9066 366.23 27.7671 365.01 27.1474C363.291 26.2878 361.632 25.5082 360.293 24.8884L371.987 30.6658L373.067 31.2455M376.185 32.9247C375.905 32.8048 375.666 32.6448 375.406 32.5049L375.026 32.305L373.427 31.4454L376.265 32.9647M295.403 4.61786C294.843 4.47792 293.404 4.19805 293.164 4.19805H293.524H293.324C290.985 3.69828 289.985 3.53836 289.985 3.53836C290.715 3.65734 291.436 3.82429 292.144 4.03813L291.525 3.91818L290.045 3.79824L289.685 3.69828L288.886 3.55835C289.136 3.62675 289.389 3.68015 289.646 3.71827H289.206H288.906C291.385 4.19805 292.204 4.41795 292.904 4.55788C291.332 4.08029 289.707 3.79829 288.066 3.71827C288.186 3.71827 289.905 4.15807 291.325 4.41795H291.485C291.741 4.48391 292.001 4.53069 292.264 4.55788H292.004C292.384 4.55788 293.384 4.81776 294.003 4.9577H293.204L294.783 5.33752C295.363 5.43748 295.923 5.5974 296.502 5.67736H297.082C297.842 5.67736 298.521 6.29708 299.321 6.07718L297.862 5.33752C298.229 5.43139 298.604 5.4982 298.981 5.53743C297.982 5.1776 296.982 5.07764 295.903 4.75779L295.363 4.61786M295.563 5.27755H295.223H295.583M312.815 9.4756L312.135 9.23571C310.596 8.81591 309.056 8.47606 307.537 8.01628H306.718C305.038 7.51651 303.319 7.0967 301.62 6.65691C301.36 6.65691 298.941 6.01721 298.102 5.87727L298.601 6.05719C298.17 6.00574 297.743 5.9256 297.322 5.8173L295.603 5.3775C293.744 5.21758 291.984 4.55788 290.165 4.27801C290.785 4.45793 291.425 4.59787 292.044 4.7378L292.724 4.91772C295.443 5.5974 295.443 5.5974 295.923 5.75733C295.194 5.67631 294.477 5.51541 293.784 5.27755L293.124 5.09763L292.404 4.91772L291.745 4.75779C291.226 4.58293 290.69 4.46888 290.145 4.41795C290.705 4.61786 291.285 4.75779 291.844 4.93771H291.485L290.365 4.63785C289.865 4.49791 289.346 4.33799 288.826 4.21804C289.146 4.34238 289.473 4.44916 289.805 4.53789H289.086V4.65784C291.964 5.47746 294.923 6.01721 297.782 7.01674C296.585 6.5981 295.354 6.28374 294.103 6.07718C295.738 6.62121 297.4 7.0816 299.081 7.45654C298.961 7.45654 298.961 7.45654 297.262 6.81683C298.381 6.81683 299.261 7.55649 300.44 7.59647H300.84C300.063 7.26153 299.269 6.96792 298.461 6.71688L297.402 6.39703H297.522L300.181 7.15668H300.72L299.981 6.87681L300.6 7.01674C301.18 7.19666 301.78 7.39657 302.38 7.5365L302.919 7.71642C302.819 7.71642 302.819 7.71642 302.52 7.71642H302.28H301.72L301.96 7.87634H301.56C301.56 8.05626 301.56 8.05626 302.26 8.27616L303.759 8.77592H303.859H304.079C304.778 8.93585 304.798 8.93585 304.958 8.91586C305.118 8.89587 304.838 8.77592 304.159 8.45607C304.947 8.59509 305.701 8.88711 306.378 9.31567C306.043 9.2376 305.701 9.19736 305.358 9.19573C306.331 9.74213 307.394 10.1079 308.497 10.2752C310.267 10.643 312 11.1716 313.674 11.8545C313.674 11.8545 309.096 9.85542 308.537 9.67551H308.677C307.637 9.29568 306.498 8.91586 305.378 8.55603H305.618C304.284 7.94337 302.881 7.49367 301.44 7.21665C301.74 7.21665 302.08 7.21665 302.36 7.21665C307.457 8.69596 307.457 8.69596 311.375 10.0153H311.695C311.298 9.79014 310.883 9.59631 310.456 9.43562C311.417 9.65443 312.359 9.94853 313.275 10.3152H313.674C313.214 10.0676 312.723 9.87951 312.215 9.75547C312.375 9.75547 312.655 9.75547 312.915 9.75547H312.795M513.102 227.474C511.696 218.454 509.821 209.512 507.484 200.687C506.089 199.623 504.444 198.935 502.707 198.688C497.595 197.546 492.422 196.698 487.214 196.149C487.466 197.795 487.553 199.463 487.474 201.127V201.526L487.354 201.826H487.194C486.882 201.848 486.584 201.959 486.334 202.146H486.114L485.954 202.246L485.814 202.446L485.475 202.766L485.115 202.346L484.815 201.866C484.455 201.526 484.395 201.526 484.335 201.526C483.724 201.391 483.142 201.147 482.616 200.807H482.196V201.307C483.256 202.246 483.256 202.246 483.915 202.466C484.217 202.728 484.416 203.09 484.475 203.486V204.025C484.655 204.405 484.915 204.885 485.095 205.265C485.209 205.673 485.303 206.086 485.375 206.504L485.495 206.904V207.444C486.098 209.51 486.888 211.517 487.853 213.441C488.243 214.582 488.809 215.655 489.533 216.619C489.793 216.619 489.913 216.619 490.052 216.739H490.532C490.732 216.08 490.532 215.4 490.672 214.74L491.072 215.42C496.05 227.614 496.05 227.614 496.29 229.413L496.389 230.073C496.389 235.111 499.588 239.169 500.727 243.867C501.307 246.486 500.308 249.244 501.527 251.863C502.479 253.819 503.223 255.869 503.746 257.98L503.906 258.66L506.665 276.791C506.545 279.75 506.425 282.429 506.245 285.068C506.297 286.44 506.588 287.793 507.105 289.066C507.436 289.116 507.773 289.116 508.104 289.066C508.664 287.886 508.664 286.547 509.264 285.387C509.703 285.229 510.184 285.229 510.623 285.387L510.723 285.847L511.243 284.388C511.237 283.454 511.465 282.534 511.905 281.71C512.344 280.886 512.983 280.185 513.761 279.67C513.761 279.19 513.961 278.531 514.041 278.051C514.241 276.871 515.361 272.613 515.381 272.593L515.92 273.053C515.92 269.815 516.06 267.976 516.06 267.956L516.3 268.175C516.3 266.856 516.3 265.537 516.3 264.177C516.18 255.541 515.661 247.445 514.781 239.429V239.929C514.601 238.589 514.461 237.27 514.241 235.93C514.041 234.191 513.841 232.712 513.621 231.193C513.621 230.733 513.462 230.253 513.362 229.793C513.542 231.792 513.542 231.792 514.141 237.49L513.861 237.11H513.761L513.482 236.19L513.342 236.03C513.342 236.89 513.342 237.75 513.342 238.609C512.703 237.206 512.409 235.671 512.482 234.131V233.691C512.622 233.392 512.622 233.392 512.662 233.392C512.743 233.701 512.894 233.988 513.102 234.231C513.265 233.563 513.202 232.86 512.922 232.232H512.662C512.302 231.732 512.262 231.053 511.602 230.753C511.539 230.629 511.442 230.525 511.323 230.453C511.103 228.974 510.903 227.474 510.663 226.015C509.284 220.498 506.665 215.34 506.465 209.523C506.865 209.643 507.704 209.943 509.623 217.659C510.24 220.485 511.186 223.229 512.442 225.835L512.602 226.015V225.575C512.602 225.315 512.602 225.335 512.602 225.355C512.783 225.847 512.91 226.356 512.982 226.875V227.055M507.364 200.267C498.091 165.027 481.724 132.049 459.267 103.352L465.784 111.968C473.96 123.323 473.96 123.323 487.494 147.531C493.851 160.106 493.851 160.106 503.486 186.413L507.684 200.707L507.504 200.407M407.051 76.6044L409.05 76.7644L408.55 76.5844H408.33C408.073 76.4351 407.825 76.2681 407.591 76.0847L407.111 75.5049H406.931H406.431L406.291 75.6649V75.7648L406.691 76.3246L406.851 76.4245L407.151 76.6444M360.832 31.6653L357.834 29.7862H357.354L357.714 29.9861L360.213 31.5653H360.972M409.03 76.7644C418.346 77.301 427.615 78.4563 436.777 80.2227C438.023 80.4247 439.21 80.8954 440.256 81.6021L438.936 80.2627C418.766 61.3515 418.766 61.3515 407.531 52.9954L392.538 42.6002L387.34 39.3417C388.42 40.0214 388.52 40.0814 389.779 40.921L390.819 41.6407L390.958 41.7806C392.958 43.5998 395.916 44.3194 397.435 46.7783L397.555 46.9182C395.736 45.7588 393.917 44.6393 392.158 43.4398H392.538L390.279 41.9605C389.499 41.5007 389.499 41.5007 389.179 41.3408L387.18 40.0614H387C386.599 39.7903 386.17 39.5625 385.721 39.3817H385.361C385.789 39.7423 386.243 40.0697 386.72 40.3613C387.014 40.472 387.301 40.5988 387.58 40.7411L391.838 43.5398C392.717 44.2782 393.653 44.9466 394.637 45.5389C395.057 45.7787 395.376 45.9786 396.736 46.8582C396.909 46.9611 397.076 47.0746 397.236 47.1981C398.275 48.0977 399.475 48.8373 400.574 49.6569L399.674 49.2571L398.655 48.5574C398.415 48.3975 398.115 48.1776 397.855 48.0377L397.475 48.2376C398.415 49.1372 399.235 50.1367 400.174 51.0363V51.2562C401.953 52.5756 403.872 53.7151 405.552 55.1344C405.067 55.0941 404.597 54.951 404.172 54.7146H403.812C402.217 54.0344 400.708 53.1688 399.315 52.1358C400.058 53.3495 401.162 54.3002 402.473 54.8545C402.811 55.161 403.172 55.4417 403.553 55.6941C403.696 55.8043 403.858 55.8857 404.032 55.934C405.045 56.1868 405.961 56.7286 406.671 57.4933C406.671 57.7332 406.271 57.6932 405.971 57.6532L406.351 58.0331C404.352 57.6732 400.354 54.3748 398.775 53.1353C398.492 52.9585 398.169 52.8554 397.835 52.8355L395.736 51.1762C392.258 48.3575 388.08 46.6583 384.481 44.0196C385.961 44.5793 391.098 47.1181 391.138 47.1381C391.677 47.2783 392.225 47.3785 392.778 47.438C393.637 47.7978 394.417 48.3176 395.316 48.5974H395.656H395.816C395.746 48.2957 395.705 47.9876 395.696 47.6779C391.364 43.9779 386.463 41.0011 381.183 38.862C380.644 38.5424 380.083 38.2619 379.504 38.0223C378.984 37.6688 378.388 37.4428 377.765 37.3627C377.525 37.4826 377.505 37.4826 377.465 37.4826C376.545 37.0228 375.586 36.563 374.686 36.0633H374.146C374.704 36.3855 375.238 36.7462 375.746 37.1428H375.366C374.615 36.7789 373.905 36.3366 373.247 35.8234L372.767 35.4835C371.796 35.0172 370.877 34.4475 370.028 33.7843H369.468L369.848 34.1641C368.912 33.917 367.991 33.6167 367.09 33.2646C366.715 33.1007 366.354 32.9068 366.01 32.6848H366.45L365.27 31.8652C363.73 30.9781 362.075 30.3056 360.353 29.8661L362.352 31.0656C361.726 30.9044 361.132 30.641 360.593 30.2859L359.833 29.7862L358.993 29.2464L357.574 29.1065C358.443 29.5654 359.278 30.0866 360.073 30.6658L360.912 31.1855L361.392 31.4454H361.212C360.28 30.7893 359.282 30.2331 358.234 29.7862C358.002 29.7049 357.759 29.6578 357.514 29.6462L355.855 28.6467L355.435 28.5268L355.735 28.8466L355.335 29.0465C355.835 29.4863 356.434 29.8261 356.954 30.2659V30.4858C356.311 30.2791 355.709 29.9611 355.175 29.5463C354.867 29.3386 354.507 29.2209 354.136 29.2064L353.896 29.5863C354.848 30.5591 356.089 31.1974 357.434 31.4054C357.974 31.7053 358.434 32.0251 358.933 32.325H358.434C357.705 32.0579 356.957 31.8507 356.195 31.7053H355.615C356.622 32.2712 357.566 32.9412 358.434 33.7043C356.434 32.9247 354.575 31.8252 352.616 30.9256C352.616 31.2455 352.996 31.5254 353.396 31.7652C354.679 32.4863 355.856 33.381 356.894 34.424C356.295 34.5839 356.275 34.5839 354.455 33.2446L354.755 33.6644L354.415 33.9442L355.295 34.6839C355.935 35.0837 356.674 35.2236 357.294 35.6834L358.034 36.2632L358.354 36.563C356.779 35.9228 355.267 35.1399 353.836 34.2241C353.976 34.6839 354.555 35.1037 355.155 35.5435H354.216C354.216 35.7634 354.216 35.7634 355.615 36.703C355.346 36.8436 355.055 36.9382 354.755 36.9828L355.155 37.7425L354.995 37.8424C355.193 38.1618 355.428 38.457 355.695 38.722H355.375L355.575 39.1218C355.808 39.2491 356.069 39.3177 356.335 39.3217C356.286 39.0447 356.321 38.7594 356.434 38.5021H356.914V38.0623C357.154 37.8881 357.352 37.6628 357.494 37.4026C357.935 37.3793 358.376 37.4552 358.785 37.6247C359.193 37.7942 359.558 38.0531 359.853 38.3822H358.973L359.293 38.682L358.853 38.782C359.668 39.8918 360.615 40.8987 361.672 41.7806H361.172C361.172 41.7806 364.731 47.6379 365.45 48.2976L364.951 47.8778C364.731 48.8973 364.731 48.8973 364.831 49.1772C364.575 49.3262 364.352 49.5231 364.171 49.7569C364.371 50.0168 364.671 50.3566 364.891 50.5965L365.33 50.7364C365.675 50.6825 366.025 50.6825 366.37 50.7364C366.668 51.1209 366.996 51.4818 367.349 51.8159C367.239 52.1069 367.159 52.4083 367.11 52.7155H366.67C366.83 53.4552 366.77 53.5551 366.39 53.9549C366.595 54.3935 366.836 54.8147 367.11 55.2144L366.77 55.5742L365.65 55.0544C365.331 55.0317 365.01 55.0317 364.691 55.0544L365.37 55.974L366.31 56.7736L366.19 57.2334L365.73 57.3933H365.33C364.951 57.8331 364.951 57.8331 364.791 58.6328H364.351V59.0726C364.871 59.6523 365.95 60.8717 364.351 60.8517C364.098 61.1061 363.919 61.4237 363.831 61.7713C364.971 62.8908 364.971 62.8908 365.09 63.2506L364.791 63.6105C365.25 64.69 366.29 65.2097 366.93 66.1093C366.93 66.4491 366.75 66.4492 366.63 66.4292L366.75 66.8689C367.05 67.3687 367.329 67.7485 367.589 68.1284H368.809C370.068 67.8685 370.508 69.2478 370.548 69.2478L370.308 69.6677C370.548 70.0675 370.808 70.5073 371.088 70.9071L370.708 71.167C371.228 72.3864 371.228 72.3864 373.527 72.6663C373.853 73.1034 374.134 73.5722 374.366 74.0656L374.186 74.4854L382.183 74.9052C382.113 74.3998 382.013 73.8991 381.883 73.4059L382.282 73.186L382.702 73.3459C382.712 73.0823 382.669 72.8194 382.576 72.5723C382.484 72.3253 382.343 72.099 382.163 71.9066C383.942 72.1465 385.801 74.9452 385.821 74.9652C390.399 75.385 394.657 75.6249 398.675 75.9048V75.485H399.115C398.873 74.4063 398.49 73.3644 397.975 72.3864L397.375 71.6867C396.576 70.8271 396.416 70.6272 394.817 70.7871C393.617 69.4677 391.818 68.7881 390.819 67.3087C389.479 65.7695 388.16 64.2502 386.82 62.7509C386.82 61.1516 385.161 60.392 384.821 58.9526H385.301C385.401 58.4928 385.441 58.213 384.781 57.2334C385.031 57.0912 385.313 57.0154 385.601 57.0135C385.353 56.421 385.009 55.8738 384.581 55.3943V54.9545H385.041C384.741 52.2158 381.803 52.1558 380.503 50.4566L380.663 50.0168C380.106 49.3136 379.505 48.6459 378.864 48.0177C379.157 47.9281 379.47 47.9281 379.764 48.0177H380.024H380.143L382.562 49.577L382.402 49.1372C383.022 49.1372 383.042 49.1372 385.221 50.5965L387.22 52.3757H386.361C389.279 54.9745 389.599 55.2343 389.699 56.2139C389.387 56.1485 389.08 56.0617 388.779 55.954L388.44 56.2539C391.978 62.2511 391.978 62.2511 395.516 65.6695C395.936 66.1293 396.116 66.3292 396.316 66.5091C399.076 68.5447 402.029 70.3056 405.132 71.7667H405.312C405.352 71.4414 405.352 71.1124 405.312 70.7871C405.952 70.6472 406.571 71.127 407.211 71.007L407.011 70.1674C407.831 70.0284 408.669 70.0284 409.49 70.1674V69.7076C409.615 69.6856 409.744 69.6856 409.87 69.7076C410.589 70.1674 411.129 70.8271 411.869 71.2269L413.308 71.3669L414.008 71.9666L414.248 72.3664C413.802 72.411 413.354 72.411 412.908 72.3664C412.908 73.0661 412.908 73.0661 414.128 75.465C412.928 75.365 412.129 74.3255 411.109 73.9657L410.789 74.3455C410.325 74.3358 409.865 74.2479 409.43 74.0856L409.15 74.4054V74.8453C408.846 74.7618 408.551 74.6479 408.27 74.5054L407.891 74.7653C408.173 75.3562 408.5 75.9243 408.87 76.4645L408.97 76.7044M382.163 74.9452L374.166 74.5054C374.166 74.9052 374.166 74.9052 374.326 75.0252C374.486 75.1451 374.766 75.385 374.946 75.6249L375.246 76.0847H376.785L377.165 76.3845C377.543 76.7476 377.958 77.0693 378.404 77.3441L379.104 77.0642C379.724 77.2641 380.203 77.7039 380.883 77.584C380.883 77.584 381.603 77.464 381.403 76.9043V76.6044C381.963 76.6044 381.963 76.6044 382.123 76.6044L382.282 76.1247C382.282 75.8448 382.063 75.6649 382.063 75.405V74.8652M398.515 75.8848C394.517 75.5649 390.279 75.325 385.821 75.0452C386.501 75.9447 387.64 76.3446 388.32 77.2441L388.54 77.544V78.2037C389.071 78.8955 389.704 79.5022 390.419 80.0029C391.998 80.8824 391.998 80.8824 392.418 81.4622L392.858 82.0819L393.277 82.7016C394.085 83.7949 395.131 84.6903 396.336 85.3204C396.768 85.5179 397.121 85.8562 397.335 86.2799C397.655 86.7797 397.675 87.3594 397.955 87.8592L398.155 88.1791C398.475 88.6388 398.875 89.0387 399.195 89.4785L402.333 89.6784C401.034 87.4394 401.034 87.4394 401.254 86.8597C401.254 86.8597 401.254 86.8597 401.693 86.8597H402.153C402.613 86.8597 402.893 87.4794 403.433 87.3594C403.593 87.0596 403.233 86.7397 403.433 86.4399C403.633 86.14 403.693 86.4399 404.192 86.4399C403.812 85.8002 403.353 85.1805 402.913 84.5407H404.572C404.234 83.9919 403.853 83.4705 403.433 82.9815H402.633C401.873 83.2214 401.534 82.4817 400.954 82.2818L400.614 81.2223C400.014 79.583 398.615 78.4036 398.015 76.7444L398.195 76.5844V76.0247L398.455 75.8648M507.304 200.247C498.046 165.019 481.7 132.048 459.267 103.352C453.669 96.7351 446.193 87.8992 440.256 81.6021C439.21 80.8954 438.023 80.4247 436.777 80.2227C427.615 78.4563 418.346 77.301 409.03 76.7644L407.031 76.6044L407.511 76.7843H407.671L408.29 77.2441C407.779 77.3006 407.301 77.5257 406.931 77.8838C407.255 78.4701 407.726 78.9624 408.297 79.3128C408.868 79.6631 409.52 79.8595 410.19 79.8829C410.37 79.3926 410.37 78.854 410.19 78.3636C412.508 78.6835 415.667 82.3618 415.687 82.3618C415.267 83.2813 415.267 83.2813 416.107 84.4808C416.267 85.0405 416.107 85.0205 415.827 85.0005C415.547 84.9805 415.447 84.8606 412.848 82.7016H412.468L411.509 81.4422H410.769C413.188 87.4394 414.228 89.8183 416.966 92.4371L417.226 93.0768C413.868 92.2572 413.868 92.2572 413.488 92.2971C413.728 93.8964 415.307 94.4761 416.087 95.6556L415.807 95.7555C414.308 94.796 412.928 93.7565 411.469 92.7169C411.129 92.8769 411.129 92.8769 409.61 95.8155C409.13 95.8155 408.47 95.8155 407.991 95.8155C406.191 97.8146 404.292 94.6161 403.673 93.5566H402.753C402.753 93.7964 402.753 94.0763 402.613 94.2962H401.773C401.358 94.2138 400.937 94.1603 400.514 94.1363H399.714C399.934 94.5761 400.254 95.1758 400.494 95.6156C400.494 96.1154 400.114 96.0954 399.794 96.0754C398.495 95.8155 398.435 95.7355 397.355 94.2362H396.816H395.856L395.156 93.0768L394.657 92.4171C394.869 92.1822 395.141 92.0084 395.443 91.9135C395.745 91.8186 396.067 91.8061 396.376 91.8773C397.435 92.1772 398.375 92.8369 399.355 93.1567L399.854 92.537C399.015 90.7379 397.116 87.4394 397.116 87.4194C396.791 87.0933 396.356 86.9007 395.896 86.8797C395.436 87.0196 394.877 87.2395 394.437 87.4194C394.437 87.6193 394.577 87.9192 394.637 88.1191C394.477 88.6588 394.397 88.6388 394.317 88.6388C393.857 88.4169 393.479 88.0564 393.235 87.6081C392.991 87.1599 392.894 86.6464 392.958 86.14L392.218 85.0005C388.779 85.4403 389.619 80.6226 386.92 79.9029C386.92 80.0428 386.92 80.0428 387.3 82.1818C386.92 82.4217 386.381 82.7016 385.981 82.9015C386.212 83.343 386.509 83.7472 386.86 84.1009C386.941 84.2615 387.035 84.4153 387.14 84.5607C387.14 84.7806 387.14 85.0805 387.14 85.3004L386.501 85.8002C386.74 86.6598 386.74 86.6598 391.158 91.7974C391.294 92.0086 391.414 92.229 391.518 92.4571L392.138 93.9164C392.818 94.836 393.677 95.5756 394.377 96.4352C394.757 97.0749 394.997 97.5147 395.216 97.9545H394.457C393.897 98.0696 393.329 98.1431 392.758 98.1744H392.138C391.139 97.9222 390.107 97.8278 389.079 97.8945C389.079 98.1344 389.079 98.4343 389.079 98.6742C388.609 98.9121 388.188 99.2378 387.84 99.6337C388.08 101.013 388.08 101.013 387.4 101.633L386.72 101.133H386.041H385.541H384.781C384.749 101.57 384.862 102.006 385.101 102.372L386.501 103.112C386.84 103.852 387.22 104.591 387.56 105.331C386.121 105.331 385.861 105.711 384.382 108.37H383.762C383.256 108.4 382.749 108.4 382.243 108.37C382.576 109.803 383.045 111.202 383.642 112.548C382.607 112.419 381.556 112.55 380.583 112.928C380.803 113.647 381.083 114.347 381.363 115.067H379.184C378.724 114.827 378.724 114.827 377.005 114.587C376.285 114.187 376.225 113.947 376.105 113.707C375.712 113.33 375.207 113.091 374.666 113.028C374.618 113.789 374.755 114.55 375.066 115.246L375.785 115.546C375.965 116.066 376.225 116.726 376.385 117.226L376.945 117.945C377.065 118.265 377.185 118.565 377.285 118.865C376.23 119.014 375.157 118.951 374.127 118.68C373.097 118.409 372.132 117.935 371.288 117.286C368.229 118.445 368.229 118.445 367.989 118.845C368.074 119.093 368.141 119.347 368.189 119.604C368.889 120.144 369.069 120.144 369.289 120.144C369.681 120.656 370.192 121.065 370.776 121.336C371.361 121.608 372.003 121.734 372.647 121.703H373.527C375.086 122.803 376.545 124.022 378.044 125.162C378.624 126.461 379.118 127.797 379.524 129.16C382.402 132.518 387.24 138.136 384.262 141.314C384.262 141.534 384.262 141.854 384.262 142.074C382.782 143.214 382.782 143.214 382.023 143.333H381.363C379.264 142.394 376.845 142.194 374.946 140.695C372.427 140.495 370.448 140.415 368.449 140.355C365.71 139.955 365.71 139.955 365.23 139.655C364.751 139.355 364.391 139.275 364.251 139.275L363.651 139.715C363.651 139.935 363.791 140.255 363.831 140.495C362.703 140.974 361.472 141.16 360.253 141.035L360.073 141.794C362.072 144.253 361.352 147.951 363.651 150.35C363.991 152.009 364.331 153.569 364.611 155.128C364.611 155.348 364.611 155.628 364.611 155.868C362.232 158.267 363.471 160.246 364.611 162.145L365.11 162.764C365.284 163.162 365.412 163.577 365.49 164.004C365.49 164.264 365.49 164.544 365.63 164.823C365.05 165.843 365.01 166.163 365.63 168.602C366.327 168.859 367.068 168.974 367.809 168.942C369.808 168.502 371.807 169.981 373.806 169.601C374.166 169.961 374.166 169.961 376.805 171.3C377.645 172.3 378.084 173.599 379.164 174.379L379.444 173.459L378.724 173.22C384.026 169.948 389.621 167.177 395.436 164.943L394.837 162.265C392.678 158.926 392.678 158.926 393.337 155.308C393.337 154.828 393.517 154.208 393.577 153.749H395.176C395.486 153.327 395.716 152.853 395.856 152.349C396.307 152.127 396.795 151.991 397.296 151.949L397.495 151.21L401.254 150.87C401.429 150.067 401.352 149.229 401.034 148.471L400.814 147.671C400.125 146.205 399.706 144.628 399.574 143.014C400.794 142.274 400.794 142.274 403.393 142.834H403.673C404.65 143.466 405.705 143.97 406.811 144.333C407.711 144.333 407.971 144.333 408.27 144.333L409.03 144.213C408.948 143.168 409.063 142.117 409.37 141.114C409.781 141.062 410.198 141.062 410.609 141.114C411.129 141.114 412.368 141.274 413.048 138.796C417.266 139.975 418.186 144.793 421.544 146.792C422.432 147.193 423.143 147.903 423.543 148.791C429.061 152.789 439.276 159.926 440.415 166.083C438.117 166.523 438.117 166.523 437.857 167.742C435.794 167.957 433.71 167.849 431.68 167.422C431.799 167.702 431.979 168.102 432.079 168.402C434.078 169.601 435.318 171.92 437.657 172.78L440.875 172.96C440.595 171.94 440.296 170.961 440.036 169.881C440.855 169.301 441.235 168.282 442.155 167.882C442.035 166.803 441.875 165.723 441.695 164.644C442.046 164.286 442.478 164.018 442.954 163.864C443.074 163.398 443.074 162.91 442.954 162.445C442.746 161.992 442.572 161.524 442.435 161.045C441.475 161.045 441.135 161.045 440.775 161.045C440.572 160.942 440.393 160.795 440.251 160.615C440.11 160.436 440.009 160.228 439.956 160.006C439.956 159.786 439.836 159.486 439.796 159.286C440.391 158.913 441.11 158.791 441.795 158.946C442.815 159.347 443.692 160.043 444.314 160.945C444.434 159.266 443.314 158.027 442.814 156.567C440.233 155.506 438.002 153.739 436.377 151.47C434.238 151.33 433.079 149.291 431.14 148.751C430.38 146.372 428.061 145.253 426.782 143.333C426.592 143.255 426.388 143.214 426.182 143.214C424.643 140.415 424.643 140.415 422.844 140.455C422.484 139.814 422.176 139.146 421.924 138.456L422.164 137.716C422.404 137.056 422.364 136.936 422.324 136.816C421.004 134.398 421.005 134.398 421.005 134.138C423.543 133.718 433.439 143.813 433.519 143.933C433.817 144.399 434.228 144.783 434.714 145.048C435.199 145.314 435.744 145.453 436.297 145.452L436.857 146.372C438.596 148.531 441.615 149.071 443.274 151.39C445.813 155.008 446.493 159.526 448.792 163.384C449.298 163.424 449.8 163.511 450.291 163.644C450.986 164.731 451.512 165.917 451.85 167.162H450.651L450.451 166.403L449.711 166.163C449.711 167.482 450.831 168.822 452.69 170.701C452.83 170.421 453.03 170.041 453.21 169.761C455.469 170.881 455.349 173.459 456.648 175.179C457.079 175.41 457.558 175.54 458.047 175.558H458.807C459.087 173.559 459.087 173.559 458.987 173.34L458.707 172.4C458.453 171.945 458.303 171.44 458.267 170.921L458.867 170.481C459.255 170.789 459.616 171.13 459.946 171.5H460.786C461.106 170.441 461.106 170.441 460.346 168.282H461.106L461.346 167.582C460.146 165.823 460.066 165.803 459.127 165.583C459.492 166.36 459.761 167.179 459.926 168.022C459.347 168.022 458.047 167.682 453.509 160.725C453.25 159.946 453.15 159.666 453.05 159.406C452.95 159.146 453.05 158.866 453.05 158.646L453.669 159.086C454.829 160.246 454.829 160.246 455.548 160.406H456.308H456.748C456.748 159.526 456.748 159.526 455.848 158.406C455.868 158.127 455.868 157.846 455.848 157.567C457.847 156.387 458.907 158.686 460.526 159.006C461.546 160.705 461.546 160.705 461.826 161.005C462.183 161.439 462.46 161.934 462.645 162.465L462.105 163.004C462.765 165.263 465.044 166.623 465.484 169.002C465.713 169.487 465.888 169.997 466.004 170.521C466.061 170.8 466.141 171.074 466.243 171.34C466.611 172.116 467.046 172.859 467.543 173.559L467.823 173.999L468.103 174.219L468.383 174.659L468.782 175.099L469.062 175.419C469.357 175.952 469.522 176.548 469.542 177.158V177.578V178.097C469.757 178.927 470.044 179.737 470.402 180.516L470.721 180.936L471.021 181.276C471.101 180.846 471.101 180.406 471.021 179.976L470.901 178.917C470.741 178.417 470.522 177.737 470.342 177.258L470.142 176.498C470.142 176.038 470.142 176.038 470.362 176.058L470.601 176.158L470.921 176.518L471.161 176.918L471.481 177.278C471.781 177.658 472.201 178.177 472.501 178.597L472.84 179.117L473.12 179.557L473.4 179.777H473.78C474.192 179.831 474.576 180.013 474.879 180.296L475.559 180.456L475.679 180.256L475.799 179.976L475.639 179.577V179.137C475.079 177.777 475.079 177.777 475.099 176.978V176.558L475.219 176.178C475.72 176.199 476.2 176.39 476.579 176.718C476.836 177.133 477.116 177.534 477.418 177.917C477.738 178.297 478.118 178.797 478.438 179.137L478.698 179.577L478.958 179.896L479.158 180.036L479.477 180.276L481.836 180.536C481.716 180.096 481.536 179.517 481.376 179.077L481.237 178.557C481.031 178.023 480.864 177.475 480.737 176.918L481.197 177.038H481.316H481.576C481.876 177.198 481.876 177.198 482.996 178.517C483.167 178.591 483.349 178.638 483.535 178.657L483.655 178.477V178.097V177.777L483.855 177.917C484.023 178.298 484.23 178.66 484.475 178.997L484.635 179.397C484.942 180.281 485.169 181.191 485.315 182.115C485.493 183.702 485.911 185.252 486.554 186.713L486.714 187.133C487.172 187.863 487.408 188.71 487.394 189.572V189.872V189.712C487.54 190.195 487.647 190.69 487.714 191.191V191.611C487.614 194.07 487.614 194.07 487.454 194.35V194.65V195.049V195.489C494.29 196.729 499.448 197.488 503.026 198.448C504.764 198.695 506.408 199.384 507.804 200.447M516.26 251.903L515.86 246.705C515.86 246.406 515.86 246.086 515.86 245.786V245.666C515.441 240.888 514.881 236.91 514.881 236.89V236.77C515.081 238.469 515.141 238.869 515.181 239.649C516.06 247.645 516.573 255.748 516.72 263.957V264.117V262.338C516.72 260.919 516.6 259.499 516.62 258.06V259.16C516.62 259.16 516.52 255.961 516.26 251.943M514.261 231.952L513.701 228.174C512.102 219.958 510.043 208.963 508.024 200.827L507.844 200.527C510.18 209.353 512.055 218.294 513.462 227.314C513.721 228.774 513.881 230.253 514.181 231.692V231.972M346.319 74.5454V74.4054L345.54 74.7453C345.26 74.9452 345.3 75.325 345.02 75.5249L344.58 75.6649V76.2246C344.58 76.5644 344.18 76.8243 344.18 77.2042C344.232 77.4863 344.334 77.757 344.48 78.0038L345.18 78.3236L345.6 78.0438C345.6 78.0438 345.6 78.0438 345.6 77.6439V77.2841V76.9443H345.739C346.199 76.9443 346.659 76.9443 346.699 76.8243L346.599 76.5844L346.419 76.2446L346.519 75.6449V75.5049C346.519 75.1851 346.359 74.8452 346.279 74.6054M380.743 102.732C380.531 102.246 380.291 101.772 380.024 101.313C378.744 100.553 378.024 99.1939 376.705 98.4143L376.265 98.6542C376.525 98.994 376.525 98.994 376.265 100.213C375.746 100.493 375.746 100.493 373.327 96.4752H371.687C371.39 95.6292 371.043 94.8014 370.648 93.9964C369.928 93.1367 368.769 92.8969 367.989 92.1172L367.429 91.7574C366.93 90.8178 365.69 90.6179 365.31 89.5784C365.051 88.9587 363.131 86.9996 362.052 86.9396C360.193 86.9396 358.534 86.2799 359.493 84.8006C359.333 84.3408 359.333 84.3408 359.333 84.1809C359.659 84.2145 359.987 84.2145 360.313 84.1809C360.213 83.961 360.113 83.7411 359.913 83.3813C359.513 82.6816 360.413 82.1219 360.113 81.3822C359.813 80.6426 359.253 79.723 358.793 78.8834C357.054 78.8834 355.335 78.7634 353.576 78.5435C353.576 78.0038 353.576 78.0038 353.796 77.7839C353.796 77.2041 353.236 76.8643 353.236 76.2846C353.455 75.8841 353.649 75.4701 353.816 75.0452C353.236 74.5454 353.196 74.5054 352.776 74.4454H351.377C351.177 74.4454 350.877 74.6853 349.098 74.4454L348.958 74.5654C349.249 75.3189 349.45 76.1039 349.558 76.9043C349.818 77.6639 350.317 78.3036 350.617 79.0433C349.598 79.0433 348.758 78.4636 347.798 78.3236C346.279 78.1437 347.978 80.3227 348.038 80.4826C348.558 81.1823 349.598 80.8025 350.157 81.4622V81.902C350.295 82.1604 350.415 82.4275 350.517 82.7016C350.517 83.3213 351.417 83.7011 351.157 84.4608C349.638 84.8206 349.638 84.8206 350.457 86.2599C350.837 86.2599 351.217 86.2599 351.717 86.2599C351.837 86.12 351.957 85.9401 353.716 87.3394H354.855C354.645 86.954 354.541 86.5191 354.555 86.08C354.555 86.08 357.034 88.359 356.814 89.3785C355.395 89.3785 356.115 90.2181 356.934 91.0577L359.793 91.1777V90.538C361.692 91.5175 362.132 93.9764 364.111 94.8759C364.411 96.2353 364.411 96.2353 364.691 96.5552C365.51 97.4747 365.61 97.7946 365.25 98.2144H363.511C362.951 98.0745 362.472 97.6347 361.832 97.6347H360.992C360.992 97.7546 360.992 97.7546 360.812 98.3143V99.014C360.48 98.9932 360.146 98.9932 359.813 99.014L359.933 99.6737C361.072 100.333 363.331 99.6737 363.431 101.493C363.212 101.464 362.99 101.464 362.772 101.493C362.392 101.953 362.392 101.953 362.452 102.532C362.252 102.712 362.172 102.772 361.672 102.732H361.272C361.852 105.551 363.111 104.731 363.611 104.412C365.202 104.531 366.784 104.745 368.349 105.051C368.609 105.051 369.229 106.031 368.669 106.451C368.109 106.87 366.67 106.451 365.85 106.97C365.871 107.203 365.871 107.437 365.85 107.67C365.294 107.696 364.744 107.79 364.211 107.95C364.544 108.569 364.748 109.249 364.811 109.949C364.459 110.454 363.931 110.811 363.331 110.948C364.351 111.508 364.351 111.508 365.81 110.948L366.35 110.449V109.949C366.88 110.063 367.392 110.252 367.869 110.509H369.668C369.109 108.989 369.149 108.909 369.289 108.63C373.886 109.469 373.826 108.789 373.746 107.89L373.886 107.73C374.986 107.85 375.666 108.869 376.745 109.049H377.105C377.845 108.75 378.624 109.269 379.364 108.929C379.704 108.769 379.664 108.37 379.624 107.85C380.123 107.63 380.743 107.99 381.223 107.51C381.003 106.451 380.004 105.931 379.464 105.071L379.284 104.611C379.144 104.272 379.144 104.272 379.284 104.012C379.616 103.981 379.951 103.981 380.283 104.012C380.283 104.012 380.123 103.252 379.944 102.632H381.063M356.195 92.657C355.975 91.7374 355.055 91.4375 354.555 90.7579C354.056 90.0782 354.236 89.8183 353.856 89.4585C353.638 89.2331 353.371 89.062 353.076 88.9587C352.856 88.8387 352.616 88.9587 352.396 88.9587C352.176 88.9587 351.977 88.5789 351.697 88.4989H351.417C350.988 88.5616 350.574 88.704 350.197 88.9187V89.5584L349.738 89.8583C349.111 89.3552 348.442 88.9071 347.739 88.5189C347.296 88.4306 346.841 88.4306 346.399 88.5189C346.879 89.5984 347.079 90.7379 347.619 91.7774H347.379H347.239L346.819 92.0772C346.579 92.0772 346.359 92.0772 346.119 92.0772L345.879 92.2172C345.659 92.3771 345.34 92.617 345.02 92.4171C344.36 91.9973 344.36 91.9973 343.82 92.1172C344.42 93.6765 344.96 95.2358 345.54 96.815C346.204 96.8939 346.875 96.8939 347.539 96.815C347.799 97.4947 348.058 98.1944 348.298 98.8141C347.798 98.8141 347.299 98.8141 346.819 98.9341C346.239 99.9136 347.279 100.733 347.079 101.693C346.539 101.973 346.319 102.113 346.859 103.052C347.286 103.571 347.856 103.953 348.498 104.152C349.058 104.332 349.398 103.752 349.918 103.732C350.444 103.759 350.954 103.924 351.397 104.212C351.957 104.212 352.456 103.432 352.496 103.332C352.536 103.232 352.496 103.332 352.356 102.552C352.356 102.233 352.676 102.213 352.776 101.973L357.994 102.153C357.854 101.853 357.754 101.513 357.634 101.193C357.514 100.873 356.714 100.353 356.634 99.6737C357.254 99.2339 357.254 99.2339 357.174 98.7941C356.78 97.4098 356.245 96.0699 355.575 94.796L355.035 93.4566C356.155 93.4566 356.275 92.9368 356.175 92.4571M476.219 405.412C476.379 405.172 476.539 404.912 476.679 404.652C482.196 395.017 482.096 394.537 481.896 393.257C479.95 396.671 477.808 399.968 475.479 403.133C473.48 403.273 474.04 405.532 472.8 406.291C471.081 405.852 471.081 405.852 466.283 412.728C464.184 415.767 463.525 419.685 460.466 422.104L460.306 421.904C458.307 424.163 456.568 426.582 454.669 428.881C454.483 429.111 454.309 429.351 454.149 429.6C453.349 430.74 452.69 431.979 451.85 433.119C451.51 433.559 451.19 434.018 450.811 434.498C449.871 435.818 448.812 437.057 447.892 438.496L448.052 438.696C448.332 438.696 448.632 438.696 448.912 438.696C448.272 439.716 448.272 439.716 448.272 439.916L448.492 440.036V440.316C453.03 439.196 471.961 411.989 472.141 411.709L473.08 410.229C473.36 409.71 473.62 409.21 473.92 408.71C474.22 408.21 474.2 408.21 474.36 407.971C474.979 407.111 475.679 406.311 476.219 405.432M512.002 299.281C512.173 298.73 512.195 298.144 512.065 297.582C511.935 297.02 511.658 296.503 511.263 296.083L510.643 297.622L509.004 298.082C508.415 298.026 507.82 298.066 507.244 298.202C506.945 297.862 506.565 297.402 506.285 297.042C506.285 291.665 506.285 291.665 505.845 290.465C505.845 278.95 498.369 268.935 499.228 257.241C499.228 256.621 499.228 256.001 499.228 254.882C499.228 254.562 494.89 220.138 480.957 201.087C480.817 201.087 480.697 201.087 479.837 201.367C479.557 201.726 479.177 202.226 478.878 202.586H478.498C471.321 199.447 465.404 193.65 457.228 192.591C457.927 196.069 458.887 199.487 459.227 203.006L457.767 203.326H455.928C454.449 201.926 453.569 199.867 451.47 199.128C449.634 199.039 447.805 198.839 445.993 198.528C445.513 197.648 445.373 196.229 444.694 195.469C441.475 191.671 436.217 191.671 432.399 188.932C428.161 185.874 431.08 179.856 427.362 176.598C427.362 176.118 427.262 175.459 427.242 174.959C428.113 174.479 428.812 173.738 429.241 172.84C427.954 171.829 426.518 171.026 424.983 170.461C421.918 171.313 418.747 171.717 415.567 171.66C414.931 172.427 414.132 173.042 413.228 173.459C409.75 170.401 409.75 170.401 403.233 171.46C402.993 171.88 402.693 172.48 402.453 172.92C400.12 172.633 397.752 172.949 395.576 173.839C395.518 174.848 395.274 175.837 394.857 176.758C392.858 177.198 390.859 176.638 388.979 177.697C388.468 177.674 387.96 177.607 387.46 177.498L385.821 177.158H384.681C381.043 177.158 380.243 176.518 378.804 175.259L377.245 174.359C375.885 176.758 377.005 179.457 376.245 181.916C374.681 182.14 373.092 182.14 371.527 181.916C371.847 184.214 372.167 186.573 372.447 188.912C370.565 188.69 368.658 188.93 366.89 189.612C366.89 193.45 366.47 197.288 366.69 201.147C366.69 202.166 366.87 203.146 366.95 204.205C365.387 204.012 363.802 204.232 362.352 204.845C362.369 206.578 361.732 208.255 360.569 209.54C359.406 210.826 357.801 211.626 356.075 211.782C354.595 212.002 347.958 228.374 347.938 228.534L346.459 228.414L345 228.714L343.56 229.613C344.14 238.609 342.981 239.069 339.442 240.408C339.262 240.848 339.063 241.448 338.923 241.888C338.827 243.068 339.137 244.246 339.802 245.226C346.119 246.406 346.119 246.406 346.759 247.625C345.06 251.043 345.06 251.043 345.06 262.498C345.06 263.098 345.06 263.718 345.06 264.337C345.06 265.737 345.06 265.737 341.781 269.055C341.941 271.254 342.781 273.313 343.141 275.472C343.141 276.072 343.141 276.672 343.141 278.771C343.141 278.771 349.538 289.865 355.695 293.104C355.395 295.743 354.635 302.799 364.291 303.479C370.788 316.193 371.188 316.953 377.185 316.153C377.767 315.21 378.224 314.195 378.544 313.135C380.543 312.315 382.542 313.255 384.541 312.755H385.481C386.82 312.755 386.82 312.755 390.139 312.855C391.378 314.714 391.378 314.714 399.714 314.714C402.273 309.556 404.432 310.036 409.19 311.076C409.494 311.126 409.805 311.126 410.11 311.076C410.11 311.076 414.108 306.897 417.546 309.696C418.086 316.733 418.086 316.733 420.925 317.992L431.799 318.572C431.5 320.371 431.22 322.17 430.88 324.209C429.461 327.788 429.461 327.788 425.702 340.642C424.793 340.942 424.011 341.541 423.483 342.341C424.014 343.215 424.794 343.911 425.722 344.34C426.702 346.719 425.722 349.718 428.001 351.697C427.222 359.113 431.28 366.67 427.382 373.986C427.202 374.526 427.002 375.066 426.442 376.885C426.333 377.952 426.513 379.029 426.962 380.004L415.707 398.575C408.69 403.393 410.15 419.365 410.21 419.485C408.8 421.767 407.894 424.322 407.551 426.982C406.171 429.381 404.772 431.759 403.133 434.498C403.133 434.638 394.957 455.488 393.837 458.707C393.637 458.927 393.477 459.127 392.958 459.667C390.379 461.006 390.379 461.006 389.739 462.965C389.979 462.965 390.239 462.965 389.739 463.945L388.68 465.144L388.939 466.703C390.395 466.845 391.861 466.845 393.317 466.703C394.319 466.305 395.348 465.978 396.396 465.724C398.051 465.918 399.728 465.789 401.334 465.344C413.848 453.509 429.581 445.753 442.035 433.819L470.581 398.835C471.001 398.055 471.381 397.276 472.421 395.356C472.863 394.431 473.257 393.484 473.6 392.518C475.139 389.419 476.659 386.301 478.098 382.802C478.738 377.085 482.096 372.287 483.296 366.71C483.396 366.43 483.495 366.15 483.735 365.55C488.393 354.795 496.33 345.939 500.927 335.184C510.203 313.574 510.203 313.574 512.122 299.441M266.936 362.552C266.936 362.552 266.576 353.736 262.258 351.857H258.16C251.663 349.858 251.663 349.858 251.083 346.059C247.085 343.441 247.085 343.441 244.087 344.28H238.369C232.812 342.041 232.812 342.041 231.193 342.701C231.193 343.161 231.193 343.76 231.193 344.22C230.013 344.92 229.373 345.3 226.575 343.86C226.575 343.48 226.575 342.981 226.575 342.601C227.234 342.201 228.054 341.661 228.694 341.242C225.758 338.847 222.277 337.213 218.559 336.484C217.863 336.454 217.181 336.277 216.559 335.964C215.83 335.469 215.001 335.14 214.13 335.002C213.259 334.864 212.369 334.919 211.522 335.164C211.522 336.524 211.522 337.883 211.662 339.162H207.903C207.863 338.377 207.863 337.589 207.903 336.804C208.363 336.244 208.983 335.464 209.443 334.805L210.502 334.005C210.302 333.645 210.022 333.185 209.803 332.825C209.803 332.825 207.424 332.106 204.905 331.106H203.945C203.273 331.119 202.603 331.199 201.946 331.346C202.146 334.245 202.206 335.584 198.548 335.024C198.499 334.299 198.499 333.571 198.548 332.845V331.546C199.826 331.71 201.123 331.457 202.246 330.826C203.246 325.889 202.366 323.89 202.046 323.13C201.287 323.13 200.267 323.13 199.507 323.13C199.448 321.291 199.247 319.46 198.908 317.652C198.32 316.119 197.653 314.618 196.909 313.155C192.391 312.075 191.971 310.836 191.571 309.636C189.186 308.825 186.85 307.877 184.574 306.798C182.355 305.718 180.216 307.157 178.017 307.037H176.478C165.923 305.038 165.943 300.74 165.963 298.921C164.073 297.996 162.232 296.975 160.445 295.863C160.445 295.563 160.445 295.263 159.266 294.823C157.267 293.464 157.267 293.264 157.267 290.665C156.757 290.668 156.248 290.722 155.748 290.825C154.488 291.205 153.309 291.764 152.029 292.044C150.99 291.085 150.99 291.085 150.77 288.426L152.069 288.046C152.069 287.686 152.229 287.207 152.269 286.847C151.223 286.144 150.036 285.68 148.791 285.487L146.952 287.087C146.792 287.087 146.652 287.087 145.872 286.747C145.1 286.468 144.293 286.299 143.473 286.247C142.354 287.546 142.134 289.346 141.074 290.685H139.935C138.056 287.606 137.936 287.586 135.097 287.027C133.556 287.076 132.013 287.023 130.479 286.867C129.671 286.58 128.842 286.352 128.001 286.187C128.048 285.678 127.969 285.165 127.77 284.695C127.571 284.224 127.259 283.809 126.861 283.488C124.862 282.909 123.343 281.489 121.344 280.99L120.304 281.709C120.304 281.889 120.304 281.889 115.586 286.887C116.123 289.04 116.484 291.232 116.666 293.444L115.746 294.283C114.447 292.104 110.649 284.608 116.846 279.49L116.466 278.551C115.846 278.551 115.306 278.551 114.327 278.691C112.028 279.45 112.048 279.69 112.328 282.549H107.97C102.792 286.147 102.792 286.147 99.9736 286.167C99.9736 287.906 100.153 289.665 99.9736 291.645C99.014 292.684 99.014 292.684 96.5951 293.444C96.5951 297.122 91.3976 299.201 93.3966 303.439L94.5961 303.639C94.816 307.317 99.3938 311.335 95.3957 314.634C94.9359 321.351 94.9359 321.351 92.657 321.751C92.8569 322.67 93.1567 323.91 93.4166 324.829C92.8369 325.269 92.0972 325.909 91.5575 326.388C91.5575 326.948 91.5575 327.668 91.5575 328.208C89.0387 329.127 88.9587 330.207 89.4385 333.445C88.4924 333.409 87.5483 333.558 86.6598 333.885C87.3994 336.404 87.1995 339.063 88.0791 341.521C89.2791 341.671 90.4902 341.711 91.6974 341.641C91.7974 342.201 91.9173 342.761 91.9973 343.44C91.8174 343.78 91.5975 344.22 91.4375 344.56C90.6479 344.797 89.9277 345.223 89.3385 345.799C89.7583 348.378 87.8192 351.137 89.7983 353.636C89.866 354.007 89.9527 354.373 90.0582 354.735C91.6374 362.232 100.673 363.871 102.772 370.968C102.912 371.587 103.072 372.207 103.312 372.967C105.191 375.426 105.711 378.684 108.07 380.843C112.648 385.021 112.488 395.156 121.164 394.017C129.16 392.958 129.7 404.012 137.156 403.912C137.916 406.531 138.676 409.15 139.535 411.909C139.625 412.743 139.841 413.558 140.175 414.328V414.687C140.175 414.947 140.335 415.187 140.735 416.107C140.915 416.427 141.134 416.866 141.294 417.186C141.367 417.623 141.367 418.069 141.294 418.506C141.391 419.366 141.613 420.208 141.954 421.004V421.224C142.123 421.74 142.372 422.226 142.694 422.664L143.174 423.863L143.293 424.263C143.469 424.859 143.523 425.485 143.453 426.102C143.777 426.896 144.207 427.643 144.733 428.321C144.733 428.561 144.893 428.801 144.993 429.041C145.087 429.296 145.167 429.556 145.233 429.82C145.612 432.299 145.013 434.878 145.992 437.297C146.972 439.716 146.792 439.536 147.751 447.292C147.751 447.432 147.911 447.572 148.371 448.352C153.469 456.728 155.188 459.567 154.028 463.585C154.32 464.196 154.668 464.778 155.068 465.324C155.208 465.664 155.428 466.124 155.588 466.463C156.287 467.363 156.287 467.363 156.107 471.921C159.146 474.859 159.586 479.417 162.684 482.276C164.863 484.155 164.264 487.853 167.242 489.193H168.542L165.543 484.555H167.202C167.542 485.075 167.882 485.594 168.242 486.194C168.242 486.554 168.142 487.054 168.082 487.434C168.722 488.333 169.401 489.233 170.081 490.232C170.997 492.089 172.053 493.873 173.24 495.57C172.52 495.17 171.62 494.59 170.941 494.151L170.581 493.671L169.701 492.691C169.701 492.691 169.821 492.851 169.321 492.951C169.738 493.54 170.252 494.054 170.841 494.47C172.259 495.278 173.492 496.374 174.459 497.689C173.3 497.309 172.34 496.489 171.181 496.09C171.61 496.481 171.904 496.999 172.02 497.569C172.02 497.949 172.16 498.429 172.18 498.788C174.639 500.308 177.618 500.907 179.557 503.226C178.802 503.436 178.114 503.835 177.558 504.386L178.617 505.285C179.197 505.725 179.996 506.305 180.616 506.705C180.901 507.074 181.161 507.461 181.396 507.864C182.855 508.664 184.075 509.863 185.494 510.643L185.314 511.043L186.214 511.422C186.621 511.439 187.021 511.534 187.393 511.702C187.894 512.357 188.596 512.828 189.392 513.042L189.712 513.322L198.868 518.199C199.083 518.401 199.318 518.581 199.567 518.739C200.759 519.128 201.974 519.442 203.206 519.679C203.644 519.731 204.074 519.839 204.485 519.999C205.34 520.008 206.194 519.968 207.044 519.879L207.624 519.159C206.547 518.498 205.309 518.145 204.045 518.139C203.785 517.88 203.525 517.62 202.246 517.3C202.246 517.3 200.427 515.98 198.248 514.221C197.948 513.919 197.627 513.639 197.288 513.382C196.389 512.482 195.289 511.782 194.47 510.903C194.201 510.603 193.899 510.335 193.57 510.103L192.411 508.804C192.191 508.504 191.911 508.124 191.651 507.824C192.18 507.879 192.714 507.782 193.19 507.544C192.63 506.93 192.135 506.26 191.711 505.545L192.691 504.806C192.411 504.026 191.991 502.966 191.711 502.167C191.931 501.887 192.171 501.447 192.371 501.147C192.171 500.847 191.931 500.548 190.851 500.168L189.632 499.908C185.754 497.289 185.754 497.289 185.274 496.689C185.174 496.549 185.074 496.389 184.894 495.39C185.134 495.11 185.454 494.71 185.674 494.41H188.193C187.467 493.345 186.933 492.161 186.613 490.912C186.285 489.746 186.103 488.544 186.074 487.334L187.373 487.454C187.373 487.094 187.493 486.614 187.553 486.234C187.613 485.854 187.373 485.894 186.533 485.195H186.313H186.154L185.054 485.814C184.254 485.275 184.254 485.275 182.655 482.996C182.355 482.456 182.095 481.896 181.796 481.356H182.795C183.641 481.693 184.462 482.087 185.254 482.536H188.253C188.073 482.236 187.833 481.796 187.633 481.476C187.433 481.157 187.473 481.097 187.133 480.177C187.273 478.778 187.273 478.778 185.814 476.859C185.614 476.419 185.454 475.999 185.254 475.539C186.229 475.551 187.203 475.505 188.173 475.399H190.012C190.332 475.239 190.831 475.059 191.191 474.899C192.051 474.899 192.93 474.899 194.13 474.899L195.309 475.099C195.309 472.92 197.009 471.481 197.768 469.622L198.028 468.482C197.828 467.883 197.648 467.283 197.488 466.683C197.085 466.678 196.683 466.631 196.289 466.543C196.289 466.144 196.049 465.744 195.789 464.824C194.43 463.125 192.051 462.625 190.871 460.686H193.41C201.786 462.685 203.745 463.105 204.405 460.046C206.564 449.691 208.523 448.572 209.263 448.172C209.551 448.923 209.634 449.737 209.503 450.531L210.742 450.791C211.843 448.986 212.78 447.086 213.541 445.113C213.781 442.874 216.799 442.834 217.139 440.655C217.599 437.497 214.121 435.018 215.56 431.68C217.687 429.096 220.02 426.689 222.537 424.483C223.716 424.483 224.896 424.483 226.535 424.483C227.528 423.713 228.445 422.849 229.274 421.904C232.261 421.974 235.25 421.894 238.229 421.664C238.344 420.869 238.638 420.11 239.089 419.445C240.698 418.242 241.865 416.542 242.407 414.607C243.16 414.186 243.881 413.712 244.566 413.188C244.519 411.326 245.02 409.491 246.006 407.911C246.825 407.411 246.825 407.411 248.005 400.954C248.041 400.334 248.205 399.729 248.485 399.175C249.316 397.656 249.788 395.967 249.864 394.237C249.88 393.568 249.84 392.9 249.744 392.238C249.744 391.878 249.604 391.398 249.524 391.038C249.561 390.203 249.514 389.366 249.384 388.54C249.276 386.813 249.628 385.088 250.404 383.542C251.203 383.322 251.203 383.322 256.101 377.025C256.756 377.031 257.403 376.871 257.979 376.56C258.556 376.249 259.045 375.797 259.4 375.246L265.237 367.149C266.796 364.231 266.796 364.231 266.896 362.632M138.955 252.063L139.155 251.943C138.716 251.483 137.836 251.763 137.536 251.043C137.236 250.324 137.676 249.264 137.536 248.385C135.935 248.915 134.265 249.212 132.578 249.264H130.939C130.08 249.084 129.4 248.445 128.52 248.385H127.701C126.981 248.645 126.761 249.544 126.001 249.784H123.223C122.063 249.784 121.703 248.445 120.704 248.205C119.704 247.965 118.705 246.506 117.385 246.466L111.948 246.246C110.924 246.295 109.911 246.469 108.929 246.765C108.929 248.625 108.929 250.484 108.929 252.323C110.429 254.322 111.448 255.381 111.968 255.521H113.647C115.047 255.521 115.047 255.521 116.186 254.022C116.726 253.302 118.725 253.062 118.725 253.062C119.664 253.062 120.504 253.542 121.404 253.542C122.303 253.542 123.183 253.043 124.102 253.062C126.189 253.075 128.268 252.799 130.279 252.243C130.526 252.091 130.81 252.01 131.099 252.01C131.389 252.01 131.672 252.091 131.919 252.243C133.23 252.575 134.568 252.796 135.917 252.903H137.576C138.176 252.903 138.556 252.343 139.035 252.063M96.875 254.682L97.0349 254.402C96.855 253.822 97.2748 253.102 96.7151 252.583C96.1553 252.063 95.8355 252.423 95.4157 252.243C94.9959 252.063 94.6161 251.563 94.1163 251.323H93.7165L89.4385 251.443C89.7183 251.963 89.8783 252.563 90.1781 253.102L90.5579 253.582C90.8378 253.862 90.9378 253.822 91.7174 253.582C92.497 253.342 93.7165 254.502 93.7165 254.502C93.7165 254.502 93.9564 255.002 93.9564 255.641C93.9148 255.901 93.9568 256.167 94.0763 256.401C94.5361 256.401 95.0359 256.661 95.5356 256.401C96.0354 256.141 95.8355 256.221 96.855 254.742M92.617 244.167L104.032 243.907C103.352 242.607 100.633 238.669 98.2943 238.289H96.6751C95.0559 238.289 93.4766 239.069 91.8573 238.289C90.7379 237.77 90.498 236.49 89.6584 235.711C88.3455 234.741 86.9698 233.859 85.5403 233.072C84.001 232.032 84.001 232.032 83.7811 231.313C83.5612 230.593 83.4812 230.273 82.5417 230.233C81.6021 230.193 80.5426 230.433 79.3632 230.493C78.6835 230.493 78.6835 230.493 77.9038 231.233C77.1242 231.972 76.6444 231.233 76.0247 231.093H73.0261C70.4473 231.093 70.4473 231.093 70.0675 231.373C67.0089 234.451 71.3669 239.569 74.9852 237.15C75.9047 236.55 76.3845 235.451 77.444 235.031C78.2919 234.899 79.155 234.899 80.0029 235.031C80.0029 235.031 82.9015 236.15 83.1414 237.989C83.1414 238.409 83.2613 238.769 83.6012 238.969C86.06 240.328 86.4199 240.248 87.2195 240.109C88.0191 239.969 88.4589 240.328 88.8787 241.168C89.2273 241.898 89.7512 242.53 90.4035 243.007C91.0558 243.485 91.8162 243.794 92.617 243.907M314.254 49.2371L313.135 47.2381C312.838 46.8621 312.488 46.532 312.095 46.2585C311.395 45.9289 310.629 45.7647 309.856 45.7787C309.485 44.6775 308.96 43.6343 308.297 42.6802C307.577 42.6802 306.838 42.6802 306.078 42.6802C305.318 42.6802 305.258 42.6802 303.459 44.4793C302.4 44.3594 301.46 43.9396 300.321 43.9196C298.481 43.9196 297.982 44.3194 297.662 44.6393C297.533 44.7653 297.379 44.864 297.211 44.9292C297.042 44.9945 296.863 45.0251 296.682 45.0191H294.683C294.543 44.6793 294.423 44.3594 294.263 44.0395C294.103 43.7197 293.983 43.3998 293.864 43.1C293.744 42.8001 293.084 42.5003 292.724 42.1404L291.844 42.3603L292.264 43.2799C291.056 42.9408 289.795 42.8323 288.546 42.9601C288.226 42.9601 285.747 43.4798 287.766 45.5788C288.766 45.5788 289.645 44.7992 290.665 45.179L292.764 46.3985C293.124 46.7583 293.044 47.2381 293.244 47.6379C291.554 47.2243 289.794 47.1833 288.086 47.5179L289.006 48.9972C289.586 48.7973 289.586 48.7973 289.825 48.7973H291.824L292.184 49.0572C292.424 49.7169 292.664 50.3766 292.884 51.0563L293.784 52.1158H294.843C295.863 52.1158 296.842 51.8959 297.922 51.9359H299.041C300.5 51.8359 301.3 53.1953 302.54 53.5551C302.54 53.5551 306.538 54.4547 306.438 52.4157C306.438 51.596 306.438 51.596 307.037 50.9563C307.637 50.3166 308.097 51.2562 308.377 50.6965C308.897 49.6769 308.897 49.6769 309.416 49.477C309.936 49.2771 310.176 49.1772 314.014 49.3171M198.348 115.746L198.668 115.366C198.668 114.947 198.488 114.367 198.408 113.947C196.729 113.947 196.729 113.947 196.189 113.587C195.259 113.052 194.417 112.377 193.69 111.588C193.43 111.148 193.29 110.889 192.89 110.769C191.906 110.581 190.912 110.454 189.912 110.389C189.445 110.177 188.991 109.936 188.552 109.669C189.892 107.09 189.892 107.09 191.471 106.451C191.731 106.331 192.83 104.991 192.251 104.072C192.106 103.876 191.992 103.661 191.911 103.432C191.555 103.437 191.2 103.404 190.851 103.332C190.139 103.454 189.459 103.719 188.852 104.112C188.273 104.691 188.552 105.491 188.273 106.111C187.633 107.63 187.633 107.63 186.873 108.25C186.873 108.25 179.177 115.167 178.877 115.526C178.415 116.115 178.088 116.797 177.917 117.525C177.877 118.091 177.877 118.659 177.917 119.225H188.892C189.832 119.225 190.232 119.445 191.111 120.624C191.977 122.011 193.247 123.099 194.75 123.743C195.009 123.487 195.334 123.307 195.689 123.223C196.069 123.103 196.929 122.783 196.889 119.524C196.889 117.525 196.889 117.525 198.348 115.786M169.101 111.308V111.188C168.702 111.028 168.422 110.709 168.002 110.549C167.752 110.492 167.492 110.492 167.242 110.549C166.483 110.549 166.403 110.549 166.083 110.549C165.767 110.441 165.477 110.27 165.23 110.047C164.982 109.823 164.783 109.552 164.644 109.249C164.384 108.65 164.144 108.53 163.764 108.53C163.426 108.579 163.082 108.579 162.744 108.53L161.145 109.249C161.582 109.416 161.993 109.645 162.365 109.929C162.684 110.289 162.664 110.809 162.924 111.188L163.184 111.468C163.504 111.768 163.864 112.048 164.184 112.368C164.504 112.688 164.644 113.028 164.923 113.307C165.117 113.514 165.367 113.66 165.643 113.727C166.023 113.847 166.683 114.007 169.002 111.388M264.177 1.19944C263.416 1.07558 262.648 0.988853 261.878 0.939564C261.626 0.909003 261.371 0.909003 261.119 0.939564C261.376 1.0285 261.624 1.14232 261.858 1.27941C261.459 1.29632 261.06 1.24217 260.679 1.11948L260.399 1.39935H260.299C260.299 1.39935 260.299 1.39935 260.059 1.69921L260.279 2.03905L259.28 1.31939C259.014 1.20351 258.759 1.06296 258.52 0.899582C258.149 0.778368 257.767 0.691379 257.38 0.639703H257.081H256.701L257.081 0.919573C256.821 0.899107 256.56 0.899107 256.301 0.919573L255.981 0.799629H256.121H256.501C256.051 0.722033 255.591 0.722033 255.142 0.799629H254.182C253.924 0.798843 253.668 0.839336 253.422 0.919573H253.242H253.102H252.703V0.539749C253.288 0.589649 253.877 0.589649 254.462 0.539749C254.973 0.595718 255.49 0.595718 256.001 0.539749H256.381L255.881 0.159926H255.321L253.722 0H253.182H252.743H251.103H251.263H253.062H252.283H249.584L249.164 0.119944H248.764H248.225H246.565H246.186H246.286L245.886 0.159926H245.186H245.046L245.206 0.259879H245.626V0.55974L245.506 0.679684H245.326H245.106H244.986H244.646H244.267C243.981 0.649697 243.693 0.649697 243.407 0.679684L243.267 0.819619L243.167 0.939564L243.007 1.0795H242.727V0.499768H242.607H242.287L241.868 0.659694L241.508 0.799629H241.388H241.268L240.648 1.01953H240.508H240.208L240.568 0.879592L241.048 0.779638H241.208H241.328H241.468H241.568L241.848 0.679684H241.588H241.208H241.048H240.528H240.228H239.669H239.369H238.769H238.569H238.449H238.309H238.509H238.329H238.049H237.43H237.25H236.79C236.545 0.718405 236.305 0.77861 236.07 0.859601H235.95H235.811L233.891 1.37936H233.432H232.752L232.132 1.4993L230.653 1.75918L229.893 1.91911V1.79916H229.294H229.054H228.834H228.614H228.334H227.934L227.075 2.01906H226.875L226.115 2.23896H226.435H226.575H227.334H227.794L227.015 2.53882H226.895H226.735H226.595L225.535 2.99861L224.716 3.25849H224.456H223.896C223.598 3.23204 223.297 3.27303 223.016 3.37843H222.577C222.324 3.39696 222.07 3.39696 221.817 3.37843C221.493 3.31634 221.161 3.31634 220.837 3.37843L220.518 3.49838L220.098 3.6583L219.698 3.75825H219.518H218.878H218.499C218.002 3.82798 217.501 3.86803 216.999 3.8782H216.779H216.579H216.38H216.12H215.9H215.68L215.42 3.97815H215.2H214.66C213.261 4.39796 213.201 4.5179 212.981 4.9577L213.341 5.09763L213.021 5.31753H214.101V5.51744V5.71735H214.86L215.5 5.57741H215.74C216.053 5.59846 216.367 5.59846 216.679 5.57741H217.059H217.479L216.619 6.05719L216.26 6.21711H216.04L215.06 6.51697H214.82H214.66H213.901H213.561L212.861 6.65691H212.681L212.141 6.51697H211.902L211.222 6.81683H210.522C210.34 6.83665 210.163 6.895 210.005 6.98804C209.846 7.08108 209.709 7.2067 209.603 7.35658C209.944 7.44082 210.243 7.64703 210.442 7.93632H210.042L209.763 8.05626L209.503 9.79545V9.9154L209.683 10.0353V10.1553V10.2752L209.543 10.3952L209.723 10.5751V10.695L210.142 10.815H210.382H210.642L210.782 10.695L211.302 10.1953H211.602C211.865 10.2059 212.127 10.2461 212.381 10.3152H212.561L212.901 10.0553H213.461C213.706 10.0979 213.956 10.0979 214.201 10.0553L214.44 9.93539H214.66H214.9H215.08H215.2H215.4L215.64 9.81544L216.2 9.63553L216.479 9.89541H217.439L217.719 10.1553V10.2752H218.798H218.918L219.238 10.5151H219.938V10.8949L220.258 11.0349H220.618V11.3747C220.271 11.7376 219.969 12.1403 219.718 12.5742V12.7141V12.854H219.958H220.138V12.974V13.3938V13.5337V13.9535V14.0735V14.2934V14.4333V15.153V15.7927V15.9126L220.318 16.3524L220.158 16.5723C219.778 16.8922 219.738 16.9321 219.818 17.6318L219.278 18.4914C218.638 18.9312 218.638 18.9312 218.439 19.311H219.358C219.22 19.5983 218.997 19.8358 218.718 19.9907C218.461 20.0186 218.21 20.0931 217.979 20.2106C217.757 20.6807 217.503 21.1349 217.219 21.57H216.459C216.34 21.8099 216.2 22.0498 216.06 22.2896V22.6895C216.301 22.7954 216.557 22.8629 216.819 22.8894C217.076 22.8938 217.33 22.9273 217.579 22.9893H217.979C218.694 22.9899 219.409 22.9432 220.118 22.8494C220.318 22.4696 220.318 22.4696 222.257 22.1897C222.077 23.0093 221.837 24.0288 223.376 24.0888H223.636C224.056 24.3892 224.45 24.7235 224.816 25.0883V25.4682L224.556 25.848H223.556H223.156H222.177C221.317 25.848 220.797 25.848 220.418 25.2083C217.359 24.8884 217.039 25.2083 217.019 26.0479L217.599 26.6676C216.839 27.5072 215.34 27.2074 214.8 28.4468L215.02 28.7866C216.799 28.9665 216.799 28.9665 217.479 30.0061H217.919C218.494 29.598 219.172 29.3609 219.876 29.322C220.58 29.2831 221.281 29.444 221.897 29.7862C222.057 29.3264 222.217 28.8466 222.337 28.4068C221.777 28.4068 221.197 28.4068 220.638 28.2869V27.907C220.378 27.9278 220.117 27.9278 219.858 27.907L220.238 27.5072H221.397C221.977 27.967 221.977 27.967 223.216 28.1469H224.476C224.733 28.1858 224.979 28.2814 225.195 28.4268V28.8466L225.075 29.1065C224.556 29.3264 224.256 29.8461 223.836 30.166C223.793 30.3026 223.793 30.4492 223.836 30.5858C224.356 31.2055 224.356 31.2055 224.436 31.6053C224.282 32.0114 224.148 32.4251 224.036 32.8447C223.494 32.8539 222.952 32.8137 222.417 32.7248C221.797 32.9247 221.337 33.5044 220.618 33.4645C220.38 33.4705 220.144 33.4368 219.918 33.3645C219.648 33.3042 219.368 33.3042 219.098 33.3645C218.877 34.1009 218.502 34.7821 217.999 35.3636C217.74 35.2847 217.487 35.1913 217.239 35.0837C214.66 36.4031 214.66 36.4031 214.58 36.663C214.558 36.8689 214.558 37.0767 214.58 37.2827C214.624 37.5612 214.712 37.8311 214.84 38.0823C216.499 38.4621 216.619 38.9219 216.599 39.0419C216.599 40.2813 214.6 39.8615 214.72 41.0409L214.92 41.4607C214.92 41.4607 215.16 42.2204 215.36 43.14C216.36 43.4798 217.119 42.6202 218.079 42.6602C218.342 42.6592 218.604 42.6928 218.858 42.7601L219.038 43.1C219.038 43.3399 218.778 43.6397 218.678 43.8596C218.439 43.8365 218.198 43.8365 217.959 43.8596L217.579 43.9996C216.26 47.318 216.26 47.318 216.579 47.8378C218.119 47.8378 219.098 46.1786 220.718 46.4584C220.553 47.2116 220.319 47.9478 220.018 48.6574C219.418 49.2171 218.519 49.1972 217.899 49.6769C217.279 50.1567 220.658 57.4933 220.698 57.5533C223.096 61.1316 225.115 62.8908 226.695 62.7509C226.988 62.773 227.282 62.773 227.574 62.7509C227.99 62.5199 228.459 62.4026 228.934 62.411H229.334C229.753 62.511 230.153 62.551 230.553 62.6509C230.553 65.0098 233.172 64.65 234.251 65.9494C234.831 66.6091 239.329 66.6491 239.229 64.59C239.229 64.3901 239.229 64.2102 239.229 63.6904C239.449 61.1116 243.767 58.5728 241.028 56.1939C241.028 56.1939 239.289 54.5547 242.008 54.3747C242.3 54.3969 242.594 54.3969 242.887 54.3747C243.311 54.3061 243.743 54.3061 244.167 54.3747C244.656 53.292 245.465 52.3851 246.486 51.776C246.452 50.8376 246.567 49.8999 246.825 48.9972L247.085 48.7174C247.119 48.2891 247.041 47.8595 246.859 47.4705C246.677 47.0815 246.396 46.7465 246.046 46.4984V46.0986C246.905 45.5788 248.045 45.9786 248.824 45.3389C249.604 44.6992 248.944 44.2594 249.104 43.7597H252.363C252.244 43.1861 252.244 42.5941 252.363 42.0205C252.976 41.99 253.59 42.0575 254.182 42.2204C254.182 43.5198 254.182 43.5598 254.422 43.9996C256.101 43.8197 257.281 42.6002 258.78 42.0005H259.4C260.089 42.076 260.785 41.9437 261.399 41.6207V41.2009C261.878 40.2613 262.878 39.7815 263.398 38.9419C263.997 38.722 263.997 38.722 264.537 37.5026C264.841 37.4191 265.136 37.3052 265.417 37.1627C265.353 36.9475 265.353 36.7183 265.417 36.5031C266.456 35.6235 266.456 35.6235 266.176 34.504H266.336H266.756H266.896H267.016H267.136L267.416 34.6839H267.556L267.836 34.9438C268.236 35.1259 268.68 35.1884 269.115 35.1237C270.294 35.1237 271.274 35.8833 272.453 35.8633C273.973 35.8633 274.053 33.7043 275.612 33.7643C276.672 33.7643 277.611 32.9247 278.671 33.1046C280.25 33.3445 279.63 30.9456 280.91 30.5658H283.248C283.708 30.3259 283.708 30.3259 284.328 29.3464L284.148 28.9865L283.648 28.7866L283.109 29.3864L282.969 29.8861H282.129C281.269 29.7062 280.81 28.7466 279.85 28.7466H279.19C276.452 28.6267 275.972 27.7671 275.732 27.3473L275.392 26.5677C278.491 26.0679 278.491 26.0679 279.05 25.5481C280.39 26.0479 280.59 27.967 282.229 28.1269L282.509 27.8471L282.629 27.1474C283.368 26.8076 284.228 27.2673 284.988 26.8475C283.988 25.4482 282.349 24.8485 280.99 23.8289C279.63 22.8094 278.251 22.6495 277.611 21.1102L278.011 20.9703C279.71 21.9498 279.71 21.9498 279.83 21.9498C280.063 21.974 280.297 21.974 280.53 21.9498H280.93C280.709 21.4854 280.455 21.0378 280.17 20.6104C280.029 20.3986 279.915 20.1703 279.83 19.9307C279.72 19.6904 279.554 19.4795 279.347 19.3152C279.14 19.1509 278.897 19.0378 278.638 18.9852C278.379 18.9326 278.111 18.942 277.856 19.0125C277.601 19.083 277.367 19.2127 277.171 19.391C276.738 19.4121 276.308 19.308 275.932 19.0911L276.532 18.5514C276.392 18.4114 276.392 18.4114 275.092 17.8917V17.6718H276.552L277.131 18.5314C277.69 18.5867 278.252 18.5867 278.811 18.5314L279.03 18.1716H279.43C279.656 18.147 279.884 18.147 280.11 18.1716C280.91 18.4914 280.91 18.4914 281.389 18.2915C281.709 16.2924 278.591 17.0921 277.391 16.2924V15.9326C279.03 16.2724 279.51 16.0725 279.73 15.9326L279.95 15.5128L280.33 15.6527H280.85C281.103 15.6588 281.355 15.6111 281.589 15.5128C280.41 14.3933 278.551 14.2334 277.591 12.834C277.711 12.7141 277.711 12.7141 278.571 12.6941C278.311 12.4342 278.051 12.1743 277.491 11.6746C277.064 11.5134 276.665 11.2838 276.312 10.9949L276.032 10.755C274.932 10.1953 273.553 10.4152 272.593 9.53557L272.434 9.37565C272.673 9.11577 272.673 9.11577 273.473 8.97583H274.073C274.608 8.96966 275.13 9.14591 275.552 9.4756C275.552 9.4756 275.552 9.4756 275.812 9.81544C276.072 10.1553 276.132 10.3352 277.411 11.1348L277.611 11.0149L275.332 9.01581L275.232 8.65598L275.032 8.49605C274.373 8.15621 274.373 8.15621 273.033 8.11623H272.513H272.114C271.854 7.92246 271.636 7.67755 271.474 7.39657L271.834 7.51651H272.114L272.513 7.37657C271.698 6.96634 270.784 6.79319 269.875 6.87681L270.035 7.25663C269.52 7.07394 269.079 6.73046 268.775 6.27709V5.95723C268.346 5.65847 267.932 5.33821 267.536 4.99768H268.135L267.756 4.75779V4.39796C267.756 4.39796 267.876 4.39796 267.756 4.17806C266.776 3.69828 266.756 3.59833 266.616 3.13854H266.996L266.636 2.95863V2.5788L266.196 2.43887H264.857L264.517 2.13901L265.297 2.27894H265.617L264.957 1.87913L265.217 1.69921L264.177 1.19944ZM238.189 0.27987L238.949 0.139935H238.269H238.109H238.829H239.349H238.689H238.329H237.31L238.209 0.0399814H237.65H238.289H237.89H236.73H237.43H236.83H235.771H236.15H234.711H233.991H233.891H234.371L231.413 0.199907L229.873 0.339842H230.293C229.424 0.528315 228.542 0.648625 227.654 0.699675L228.594 0.539749H228.314L229.893 0.379824H229.314H229.793H228.994L226.395 0.639703H226.135H226.595H226.435L224.176 0.859601H223.896L222.517 1.03952H222.297L220.777 1.23942H220.598L218.598 1.53929C218.058 1.73708 217.493 1.85821 216.919 1.89912H217.179L216.979 2.07903L218.978 1.7192L220.198 1.53929H220.997L219.318 1.77917L217.319 2.13901L215.58 2.49884C216.833 2.49179 218.081 2.33747 219.298 2.03905H219.578H220.318L222.117 1.73919L223.596 1.51929C224.496 1.37936 225.415 1.27941 226.315 1.15946H226.535L225.895 1.19944L222.617 1.79916H223.396H223.516L222.337 2.01906H221.677H220.977L220.098 2.13901L218.099 2.39889H217.699H217.079L215.66 2.71874H215.8L215.26 2.89865L214.061 3.25849L214.5 3.37843H213.821H213.401C214.055 3.17278 214.68 2.88388 215.26 2.51883H215H214.5L212.801 2.87866L211.802 3.19851L210.562 3.61832L209.163 4.21804L208.843 4.47792L209.463 4.59787C208.823 4.77778 208.103 4.81776 207.464 5.03766L205.824 5.57741L207.164 4.83775H206.924L205.804 4.9577L204.785 5.09763L203.166 5.43748L201.506 5.93724L200.367 6.33706L200.547 6.457H201.486L202.586 6.33706L200.587 6.81683L199.247 7.35658C199.847 7.47653 199.847 7.47653 203.466 6.53696L201.466 7.21665L199.128 7.79638L198.128 7.89633V7.43655L198.468 6.97676H197.508C195.914 7.75634 194.218 8.30814 192.471 8.616L190.472 9.2557L188.892 10.1353V10.5151C189.567 10.383 190.234 10.2162 190.891 10.0153C190.891 10.0153 190.891 10.0154 193.73 9.89541V10.1353C194.217 10.1207 194.7 10.0469 195.169 9.9154C195.449 9.9154 195.729 9.9154 195.809 9.9154C194.69 10.4152 194.69 10.4152 194.57 10.5751C195.011 10.6721 195.468 10.6721 195.909 10.5751H196.589C198.215 10.2428 199.813 9.78156 201.367 9.19573L202.486 8.57602L200.747 8.99582L202.366 8.15621L203.585 7.9763L205.585 7.21665L206.864 6.57695H207.484C209.023 6.57695 210.262 5.67736 211.702 5.31753H212.621C213.205 5.29032 213.756 5.03984 214.161 4.61786V4.39796H213.901L212.481 4.69782L211.282 4.9577L212.401 4.53789C213.501 4.318 214.6 4.05812 215.7 3.81823H216.32L215.64 4.11809C216.22 4.23803 216.22 4.23803 218.798 3.69828L219.558 3.21851H220.458L219.738 3.53836H220.498L221.937 3.29847L223.116 2.81869V2.65877H224.496L225.715 2.3789L226.855 2.21897C228.494 1.91911 230.113 1.67922 231.732 1.35937H232.392L233.252 1.21943L233.771 1.01953C232.938 1.14335 232.095 1.19684 231.253 1.17945L232.272 0.999536L233.172 0.899582H234.531L236.53 0.699675C237.161 0.656635 237.788 0.576534 238.409 0.459787M207.903 4.39796L210.102 3.79824C210.282 3.55835 210.282 3.55835 210.502 3.45839L211.842 3.11855L213.041 2.83868L213.701 2.63877L212.381 2.85867C212.381 2.85867 214.6 2.21897 216.499 1.85914C217.449 1.74583 218.391 1.57223 219.318 1.33938L217.319 1.57927H217.579C217.025 1.69127 216.464 1.76474 215.9 1.79916H215.46C214.34 1.9391 213.261 2.17899 212.181 2.3789H211.902H211.322L209.143 2.7987L207.843 3.0186L205.744 3.45839H205.904L203.705 3.97815L202.806 4.25802H203.565L204.705 4.0981H205.445C204.563 4.40663 203.652 4.62106 202.726 4.7378H202.166L200.787 5.01767L199.847 5.3775L197.848 5.99722V6.25709L199.168 6.07718V6.27709L200.667 5.87727H201.007C201.544 5.76246 202.071 5.60879 202.586 5.41748L204.365 4.91772L204.025 5.15761L206.024 4.7378C206.632 4.6419 207.233 4.50837 207.823 4.33799M191.431 8.59601C192.673 8.37539 193.873 7.96405 194.989 7.37657L193.41 7.63645L190.791 8.41609L191.431 8.59601ZM191.051 13.3938L192.85 12.2943L192.231 11.7945L191.411 11.4547L189.252 11.9544L186.533 12.4742L185.134 12.6341L184.314 12.3543L182.915 12.4742L184.194 11.5346L186.353 10.5751L188.133 9.79545H186.993C184.684 10.3021 182.488 11.2305 180.516 12.5342L177.578 13.6537L176.358 14.4733L175.578 15.3129L177.398 15.093L179.397 14.5133C179.117 14.7931 178.857 15.113 178.597 15.3929C179.119 15.4899 179.654 15.4899 180.176 15.3929H182.175L183.655 15.053L185.014 14.5333L184.614 15.093C188.193 14.7931 188.193 14.7931 189.192 14.1734C189.795 13.7813 190.478 13.5286 191.191 13.4338M167.582 15.9526H168.282L169.461 15.3129L167.582 15.9926M173.759 14.9531L176.298 13.7936L176.838 13.2538L178.237 12.5342L177.278 12.6941L175.019 13.2938L173.2 13.9935L171.8 14.8931H172.58L172.34 15.3129L173.759 14.9131M182.475 11.0349L184.694 10.3352L186.114 9.79545L187.273 9.15575H186.453L186.833 8.89587L185.614 9.09578L183.355 9.85542L182.475 10.4352L181.756 10.9549H182.475M191.911 7.79638L193.53 7.27662H192.671H191.911L189.912 7.79638L188.572 8.25617L189.672 8.13622L190.691 7.93632L191.911 7.79638ZM193.91 6.75686L195.389 6.35705L196.849 5.79731H196.389L197.908 5.23757L196.389 5.57741L194.75 6.07718L191.911 6.95677L192.031 7.07671L192.99 6.93678L193.91 6.75686ZM202.806 3.91818L204.005 3.71827L206.364 3.21851L206.804 3.07857H206.484L204.305 3.49838H204.685L202.806 3.89819M188.532 7.63645L190.272 7.17667L192.271 6.55696L193.31 6.19712L195.309 5.63738L195.909 5.39749L196.809 5.11762H196.109L197.268 4.77778L198.368 4.45793L197.688 4.57787L195.909 4.99768L194.19 5.39749H194.69L194.05 5.5974L191.911 6.09717H191.431L189.572 6.63692H190.092L189.032 6.99675L190.292 6.69689H190.412H190.771L188.772 7.43655V7.59647M185.954 8.03627L186.853 7.79638L188.033 7.35658H187.253L185.374 7.93632L185.954 8.03627ZM178.817 11.4347C179.606 11.1607 180.353 10.7771 181.036 10.2952C180.482 10.4193 179.935 10.5727 179.397 10.755L180.696 10.0553H180.076C178.674 10.8689 177.177 11.5068 175.618 11.9544L178.117 10.795H177.518L175.519 11.5346L173.519 12.3743L174.699 11.6946L177.917 10.4551L178.617 9.97537L175.519 11.0349C174.219 11.5346 172.96 12.1943 171.68 12.7741L171.36 13.1939L172.56 12.894L173.32 12.7341L172.12 13.3338L169.381 14.5932L170.701 14.1934L171.62 14.0935L172.5 13.9135L174.499 13.1539C175.399 12.7741 176.258 12.4142 177.178 12.0744C178.097 11.7346 178.457 11.6746 179.177 11.4547M167.922 13.9535C168.722 13.6337 168.702 13.4937 168.702 13.4737C168.222 13.4737 167.842 13.8336 167.362 13.8935L165.583 14.6532C166.395 14.5459 167.185 14.3097 167.922 13.9535ZM179.916 9.37565L181.196 9.07579L183.915 8.15621L185.134 7.79638C183.366 8.22407 181.624 8.75133 179.916 9.37565ZM167.342 38.2422L169.661 36.663L170.341 35.0437C169.264 35.0492 168.188 35.1294 167.122 35.2836C166.049 35.8373 165.008 36.4513 164.004 37.1228L163.544 38.5421L165.103 38.722L167.342 38.2422ZM168.822 18.5514C171.92 17.252 171.92 17.252 171.92 16.8722H170.881V16.4524C169.181 16.6123 169.181 16.6123 168.882 16.7922C167.673 17.4919 166.384 18.0424 165.043 18.4314C163.704 19.1111 162.405 19.7908 161.045 20.4305L157.407 22.6695L159.026 22.3496L161.185 21.53L163.424 20.3306L164.044 20.6104L166.043 19.8308L168.982 18.4714M152.989 24.1088L155.988 22.6295L157.547 21.53L158.726 20.5505L159.226 19.9108C161.075 19.5253 162.799 18.6874 164.244 17.4719L165.183 16.8722L164.204 16.9921L162.205 17.8717H161.925L162.085 17.5119L160.665 17.8717L158.986 18.7313L157.647 19.6909C154.228 21.2701 154.228 21.2701 153.889 21.2501C154.242 20.9327 154.616 20.6389 155.008 20.3705L154.248 20.4705L152.249 21.43L151.51 22.1697L150.95 22.7294L151.13 23.0893C148.511 24.9084 148.511 24.9084 148.691 25.4082C149.611 25.0785 150.512 24.698 151.39 24.2687L152.949 24.0888M153.089 20.1906L155.928 19.0312L156.747 18.4914L156.287 18.1916C155.605 18.393 154.937 18.6401 154.288 18.9312L153.089 19.7908C153.089 19.7908 152.689 20.0507 151.09 20.9903L152.969 20.2906M152.829 19.311L154.828 18.4914L154.148 18.6114L152.589 19.1911L152.849 19.311H152.829ZM187.333 6.71688C188.247 6.51924 189.149 6.26555 190.032 5.95723H189.392L188.233 6.17713L185.554 6.79684H185.954H186.513H187.233H187.333M182.915 7.79638L184.914 7.29661H184.594H183.955L182.775 7.79638L180.776 8.25617L177.478 9.2557H177.358L178.437 8.99582H179.217L180.896 8.53604L182.375 8.07625H182.815M179.916 8.29615H180.076L182.595 7.61646L183.475 7.33659H183.035L181.036 7.87634L179.916 8.29615ZM166.323 14.0335L170.321 12.5542L171.48 12.0544H171.081L169.341 12.6541L169.921 12.3942L171.76 11.5746L173.639 10.9349L175.638 10.2153H175.179L173.639 10.6551L172.76 10.875L171.26 11.3747C170.141 11.8545 170.141 11.8545 167.262 12.874V12.994C166.635 13.3106 165.96 13.5201 165.263 13.6137H164.584L165.683 13.0939L168.322 12.0544L169.042 11.7945H168.642L169.601 11.3747L169.741 11.2748L168.082 11.7945L165.043 12.7541L162.844 13.4538L160.386 14.2734L158.067 15.133H158.506L158.286 15.3529L159.166 15.153L160.565 14.7731L160.665 14.9531H161.205C160.625 15.1629 160.03 15.3299 159.426 15.4528H158.786L157.247 15.9526L155.628 16.6123L155.028 16.9721H155.888L158.446 16.1925L161.245 15.2529L162.265 15.053H163.144H164.064L166.383 14.2534M172.1 10.835H172.3L174.299 10.2153C174.028 10.303 173.745 10.3501 173.459 10.3552H173.699L172.16 10.835M160.406 14.1534L164.604 12.7341L163.144 13.1339L160.525 13.9935L160.406 14.1534ZM174.399 9.77546L177.158 8.99582L177.658 8.77592L175.399 9.37565H174.899C174.639 9.37565 166.902 11.6346 166.902 11.6546L166.523 11.7945L164.783 12.3143L162.465 13.0939L161.465 13.5137L163.684 12.7941L162.345 13.3138L163.764 12.874L165.403 12.3143H165.903L168.402 11.5346L170.261 10.9949L167.922 11.6546L168.942 11.3747L170.541 10.9549L174.399 9.79545M137.076 31.0456L138.736 30.126L139.375 29.1864L139.255 28.2069L141.254 26.6476L144.253 25.0284L145.333 24.0688L149.131 22.0698L151.13 20.8103L151.71 20.1307C151.43 20.1307 151.15 20.1307 150.89 20.1307L147.891 21.57L145.892 22.6095L143.513 24.0089L142.034 24.6685H141.834L142.674 24.0488L144.673 22.9893L146.212 22.1297L148.451 20.7903H148.031L146.212 21.7299L144.853 22.4896H144.133L142.654 23.1892L141.714 23.4291L143.473 22.6095L145.612 21.63H145.333L145.672 21.2501L144.933 21.3901L142.934 22.3496V22.2097L144.373 21.59L146.832 20.4305L147.132 20.1906H146.512L144.253 21.0702L142.914 21.55L141.634 21.9498L139.475 22.8094L136.976 24.0488L134.578 25.0284L133.078 25.768H133.458L132.259 26.4677L133.678 25.948L134.538 25.788L133.338 26.5677L131.739 27.1274L130.399 27.5872L128.64 28.4068L127.781 29.1864L128.62 29.0865L129.94 28.8066C130.197 28.7555 130.462 28.7555 130.719 28.8066C130.06 29.5263 130.06 29.5263 128.44 30.3459H127.101L125.802 30.4659L123.143 31.5853L120.104 33.5844H120.964H121.863L119.085 35.5835L118.345 36.3831L119.644 36.2831L121.084 36.0433L123.463 35.0037L125.262 34.384L127.941 33.1446L129.48 32.4849L128.78 33.1646L129.72 32.9247L129.06 34.3041H129.94L131.319 34.0242L133.798 32.6249L134.697 31.5454L135.497 31.4054L137.016 31.0256M125.022 35.7034L127.201 34.3041L124.542 35.1637L120.984 36.683L121.404 37.0428L123.623 36.1032L125.022 35.7034ZM145.013 20.5505L147.012 19.8908L149.371 18.8313L151.59 17.6518V17.5319L149.591 18.2515L150.31 17.7917L151.35 17.232H151.15L149.81 17.5918L147.811 18.3715L144.313 19.7908L138.915 22.1097L131.499 25.3882L130.339 26.1678L125.942 28.5667L129.04 27.1274H129.64L131.879 26.1279C135.557 24.3687 141.274 21.9898 141.334 21.9898L145.093 20.6504M190.771 100.353L192.491 98.994L191.131 97.7546L192.511 96.4152L193.29 93.5965L189.692 93.1168L189.392 91.4775H185.394L181.916 93.0968L179.517 94.4162L177.917 93.7565L179.157 91.7574L183.155 90.5779L187.673 89.5984L189.912 88.0191L187.193 87.8592L184.834 86.5998L181.536 85.7602L179.916 83.7611L178.077 81.902L177.677 80.2028L179.217 79.8829L180.116 78.6435L178.917 75.7648L177.458 72.6463L176.018 67.2688L175.918 64.9099L171.92 68.0684C171.52 68.988 171.141 69.9075 170.721 70.8271L167.482 71.9066L164.863 73.9057H162.285L162.525 72.1265L161.425 70.8271L158.586 71.4468L160.805 68.3683C161.485 67.0289 162.185 65.7095 162.804 64.3701L163.784 62.371L160.945 62.2711L159.546 60.7718L158.806 58.6528L156.807 56.4338L154.808 57.5133H151.969L151.31 56.7337H148.091L145.732 58.233L145.412 60.372L142.954 63.2906L142.054 65.2897L141.534 67.7685H139.755L138.236 70.4073L136.237 71.8866L137.096 73.0461L138.336 74.9052L137.076 78.3836C136.357 79.703 135.637 81.0624 134.937 82.3818L131.659 85.2604L127.941 87.5793L124.262 88.1391L124.402 91.6375C123.623 93.1767 122.883 94.716 122.143 96.2753L121.943 98.9341L120.384 101.113L117.565 103.912L113.947 104.491L113.787 100.633L113.067 97.3348C113.527 96.3952 114.027 95.4557 114.487 94.5161L115.906 90.518L117.945 87.3594L114.247 86.8597H111.428L110.609 85.7602L107.75 84.7606L107.61 82.9415L106.031 80.9424L104.571 78.9433L99.9536 80.3227L100.533 78.3236L102.432 73.8657L101.653 72.7462L101.953 71.047L106.81 65.7695L111.948 61.7713L116.686 58.2929L119.864 56.9935L123.123 55.1944L124.182 53.3952L122.403 52.7155L120.944 51.5561L123.483 52.0758L125.322 52.8555L126.921 52.4157L129.06 50.4166L130.379 51.3362L132.099 50.8964L133.638 49.3971L135.117 48.7174L137.536 46.7183L136.137 46.5184L134.358 46.3585L134.737 45.299L133.798 44.1595H135.197L136.737 44.9191L137.676 45.5988L140.075 44.7992L143.054 42.98L143.293 41.6007H144.973L144.653 42.8401L142.394 44.2994L138.995 46.9982C137.936 48.0977 136.876 49.2171 135.837 50.3566L133.338 51.1962L132.419 52.7155H134.238C133.818 53.1953 133.398 53.6751 134.358 54.2748L135.837 53.795L138.136 51.9759H140.555L141.714 52.1958L142.494 52.9154C143.194 52.9154 143.873 52.9154 144.493 52.9154L146.272 50.9164L144.613 50.4566L145.732 48.0977L143.553 47.9177L143.433 46.1386L142.234 45.7787C142.674 45.3389 143.094 44.8992 143.553 44.4594L144.753 44.7792L146.352 43.7797L147.192 42.7202C147.831 42.7202 148.411 42.7202 149.051 42.7202L151.25 41.1809L154.448 39.6416L156.247 38.3822L156.667 37.0628L158.167 34.9038L160.066 34.544L162.265 32.9247L162.864 31.4054L162.225 30.6258L161.765 29.4863C162.485 29.4863 163.204 29.4863 163.944 29.4863L165.143 28.6867L166.523 28.8266L166.763 29.6862L168.762 29.5463L170.881 29.1065L171.201 27.6672L172.48 27.3473L172.06 28.9865L173.559 29.1265L172.6 30.7257L173.579 31.0056L173.12 32.225L173.959 32.8248L173.28 34.384L174.439 35.0037V36.603L173.1 38.6021L169.101 40.821L165.483 43.08L164.803 45.219L161.105 45.7787L159.746 45.3389H157.867L154.068 47.2181L152.449 49.2171L154.868 49.6769L157.247 49.477L158.686 48.3575L160.166 47.6978L161.365 48.0577L163.524 48.8573L164.364 51.596L163.964 53.1353L164.464 55.1344H167.002L168.202 57.7532H172.2L174.199 58.9326L175.279 57.3134L172.72 54.0749L171.92 52.5756V51.0563L173.919 52.4157L177.378 54.8545L179.217 56.2539C179.617 55.4542 179.996 54.6746 180.416 53.895L182.895 51.8959L181.236 50.6365L182.455 47.5179L179.916 46.3585L178.777 42.5602L180.656 41.5007L182.435 40.5612L184.954 44.0196L185.394 46.2985L187.393 46.6383L189.512 43.9796L192.631 43L193.59 41.9405H195.329L196.669 40.7611L197.448 39.0419H194.09C194.27 38.742 194.43 38.4422 194.63 38.1223L193.51 36.703L192.271 36.4831L190.711 35.7834H189.132L189.532 34.5839L189.752 33.5244H187.153L186.214 33.4245C186.653 32.8248 187.093 32.225 187.593 31.6453H189.372L190.951 30.8057L189.072 30.246L189.932 29.5263L191.231 29.3064L190.911 28.1469L189.552 27.6871L191.211 26.6076L190.092 25.788L188.093 25.908L188.652 25.0684H187.173L186.753 24.8884L188.892 24.0288L187.773 23.5291L185.054 24.1088L185.334 22.6895L186.094 21.9098H184.974L186.054 20.9703L185.014 20.3306C184.214 20.3306 183.395 20.3306 182.615 20.3306L181.256 21.0902L179.777 21.2901L178.977 21.0702L177.298 22.0298L176.018 22.1497L177.638 20.9303L179.916 19.7908L181.016 18.3515L182.575 17.0921H180.576L178.157 18.0516L176.738 18.1716L174.739 18.8512L172.4 20.1706L170.961 21.61L168.962 22.5895L167.402 24.4486L166.143 24.6685L167.182 23.0893L169.981 21.0902L171.98 19.7308L175.179 18.3315L178.297 17.192H176.618L174.419 17.4919L170.021 19.1511L165.043 21.55L160.046 24.6685L161.125 24.9884H162.145L160.905 26.1878L159.966 25.948L157.967 26.4677L156.967 27.967H158.646L160.006 27.5472L159.866 28.4868L161.005 29.2864L159.006 29.8461L157.147 31.2655L156.907 32.265L151.929 35.2236L148.731 37.3427L145.632 39.0619L145.273 38.4022L147.272 35.9033L149.93 34.364L150.81 32.1051L146.932 33.9642L148.931 30.8257L148.751 30.4459L151.17 28.8466L153.449 27.1074L152.849 26.9475L154.848 25.5281L155.988 24.0288H154.568L152.809 24.9484L151.949 25.0684L148.791 26.6076L147.212 27.8271L145.492 28.8266L144.333 30.4659L144.033 31.5254L141.414 33.1046L140.535 32.7448L138.536 34.544L140.015 34.364L143.193 33.0247C142.314 33.6444 141.474 34.3041 140.655 35.0237L135.437 37.0228L131.999 39.9415L132.299 38.4222L135.357 36.4231H134.338L136.737 34.5839C137.036 34.5839 137.376 34.5839 137.676 34.5839L141.074 31.9652L141.194 30.5458L138.016 32.4049L135.657 33.3045L134.737 35.3036L132.139 36.543L129.94 38.0423L125.942 38.4821V37.3627L125.142 37.1028L125.962 35.5835L123.163 36.8629L119.584 38.3222L117.246 40.2013L112.748 43.2399L116.746 39.7216L117.226 38.5021L114.707 39.3018L112.528 38.9619L114.027 37.9224L116.446 36.9428L117.965 35.2436L116.886 35.4435L117.745 33.9043L119.584 32.5849L119.305 32.4049L118.625 32.5849L116.406 33.7843L115.426 34.1641L119.664 31.6253L115.346 33.9642L115.446 33.7443L120.504 30.8057L121.064 30.4059L117.346 32.4049L114.807 33.7843L113.907 34.2041L111.788 35.2836L109.009 36.8629L113.008 34.5639L114.467 33.8243L115.886 33.1046L117.885 32.0251L118.105 31.8652L115.946 32.8647L113.067 34.384L112.708 34.5839H112.588C105.131 38.9419 95.5156 45.319 88.319 50.0767C76.9443 58.193 76.9443 58.193 56.4338 76.7843L52.9754 80.3227L53.5951 79.703L52.3757 81.0024L50.3766 83.1014L49.7969 83.8611L47.7978 85.8601L46.8782 87.1196L45.0591 89.1186L44.6193 89.8183V90.0382L42.6202 92.3171L40.7811 94.676L38.5221 97.4747L36.523 100.114L36.7429 100.313L34.384 103.492L32.6448 106.431L31.1655 108.65L30.5858 110.249L30.4659 111.328V112.088L29.3664 113.827L28.7067 115.986L28.1269 117.825L25.9879 122.163C25.2883 123.303 24.5486 124.482 23.8489 125.642L24.6486 123.503L25.848 120.704L26.8675 118.905L27.3073 117.266V116.626L29.1065 113.747L28.5667 113.867L29.1265 112.528L29.2664 111.888V111.448L28.6467 111.888L27.3673 114.127L26.8675 115.446L25.9879 117.346L24.9684 120.364L23.2492 123.743L21.0302 128.101L18.9312 131.739L16.1125 136.577C15.113 138.416 14.1134 140.275 13.1939 142.134L12.0944 143.533C11.4747 144.773 10.8749 146.012 10.2352 147.252L8.89587 151.07L6.8968 154.868L5.73734 157.827L5.03766 160.346L3.37843 164.224L2.67876 167.382L2.51883 169.881L1.11948 175.379V177.558L0.319851 180.436L0 183.715L1.13947 183.555L1.31939 185.714L2.13901 187.453L2.33891 190.312L1.65923 193.91L1.2994 197.508L0.55974 203.506L0.959554 206.024L1.55928 208.963V211.122L0.199907 213.121L0.339842 215.7L1.19944 217.979L2.41888 220.518L2.99861 223.336L2.47885 225.695L2.5788 227.694L3.79824 228.934L4.81776 231.513L5.53743 233.711L5.35751 236.41L6.2371 235.451L6.73687 232.472L6.51697 229.154L5.41748 227.894L5.5974 224.976L4.53789 222.657V215.4L3.81823 212.841L4.13808 209.363L3.21851 208.363L3.45839 204.085L3.03859 200.507L3.99814 195.709L5.01767 195.409L6.09717 196.749L6.33706 199.267L5.49745 203.386L5.99722 208.743L6.93678 213.001L7.99629 215.96L8.67597 218.978L8.45607 222.517L9.97537 224.516L10.8949 227.794L11.5546 231.313L13.3338 236.15L13.9935 240.528L15.073 242.527L13.7536 244.227L13.2339 247.005L15.6128 251.003L17.6118 254.322L20.3106 255.781L23.1692 258.88L26.6676 261.479L30.6658 264.737L34.0242 266.196L36.2232 265.857L36.8829 263.957L39.4017 263.378L42.2604 265.577L45.5189 269.375L47.358 272.553H50.0568H51.0963L52.6555 273.413L54.4547 276.811L57.9331 278.311V275.992L59.9322 277.311C66.1293 288.226 66.1293 288.226 65.7695 290.445L67.0489 292.244L68.4682 291.285L70.4673 292.564C74.7453 297.442 74.7453 297.442 76.6644 297.182L82.1019 300.4L85.0205 301.92L84.5208 298.321L85.7402 296.003L90.7379 296.322L91.4375 298.581L93.0568 298.341L93.7565 295.343L91.7574 292.644L86.5798 292.784L83.2413 292.644L78.3636 292.324L76.0247 290.325L72.7262 286.087V282.629C72.7262 281.089 72.5863 279.57 72.5463 278.031L73.3659 272.214V268.215L71.9666 265.137L68.968 263.138L64.53 263.758L61.4515 262.918L58.113 264.917L55.914 262.918L57.9131 260.499V258.5C57.9131 257.74 57.9131 256.981 57.9131 256.201L58.7327 253.582L59.9522 249.384C59.9522 247.845 60.0921 246.286 60.1521 244.746L62.1511 242.847L62.6509 239.389L61.2915 238.089L56.5337 238.709L53.5751 239.489L52.1558 242.767L50.7564 247.645L49.2371 252.103L46.8382 252.663L43.4598 254.202L40.0014 255.062L38.5221 251.863L35.8434 249.704L35.0237 246.046L33.4045 241.308L32.9647 233.172L33.1246 227.294L34.9438 222.717L36.2632 217.539L35.7034 212.301L38.862 207.124L40.861 206.804L43.3399 204.085L45.9786 201.027L48.8173 201.546L50.8164 202.526L52.8155 201.367L53.835 204.125H56.4938L58.6128 203.805L58.5128 201.666L59.8522 198.168L63.1307 197.708L65.5296 197.188L69.8276 197.648L71.067 200.647H72.5263L73.7657 198.888L75.1251 198.408L76.8443 200.947L78.3836 204.145C78.2037 205.405 78.0438 206.644 77.8838 207.903L78.7634 210.062L78.9833 212.481L80.3027 214.221L80.8624 216.839L82.6216 218.119L82.5017 221.017L84.1809 221.637L85.4403 219.638L86.5798 216.479L85.9601 212.701L85.5803 207.004L83.961 202.026C84.2609 199.847 84.6007 197.668 85.2804 194.45C85.7402 193.41 86.3599 192.011 86.8397 190.991L89.5184 186.214L92.677 184.674L96.7951 180.996L100.593 178.197L104.032 176.658L105.091 173.959L107.95 172.22L106.73 167.722L105.631 165.723L106.85 163.264L105.951 161.085L108.71 159.606L110.049 162.804L112.048 159.546L114.047 156.707L116.046 154.868L119.065 148.871H123.803L127.281 146.872L130.939 146.412L130.599 144.073L131.599 139.255L134.937 135.537H137.756L139.195 133.538L142.914 133.658L146.912 131.659L149.75 128.82C156.167 128.58 156.167 128.58 158.267 129.84C157.867 130.12 157.347 130.479 156.967 130.799C155.25 130.772 153.533 130.865 151.829 131.079C148.551 133.258 148.551 133.258 148.431 135.957L150.27 136.896L152.929 134.897L154.928 133.758L158.286 132.758L161.925 130.879L165.463 130.1L168.762 126.901L171.84 124.662L172.72 122.123L168.982 123.023L165.743 127.021L161.605 127.241L158.646 125.622L155.868 122.883L155.268 118.185L158.786 115.746L159.606 112.028L155.348 111.748L150.27 113.207L144.273 116.326L137.816 121.464L133.058 124.462L135.397 121.684L138.616 118.725L140.615 117.286L137.096 116.266H141.974L143.973 113.727L147.372 111.388L150.67 111.188L152.869 108.35L155.908 107.27H160.186L168.182 107.03L172.08 107.69L175.339 107.49L179.077 105.211L182.675 102.113L187.913 101.393L190.831 100.353" fill="white"/>
</mask>
<g mask="url(#mask0_122_581)">
<path d="M44.919 73.7656C-91.0978 201.706 -91.0978 329.647 44.919 457.587" stroke="#4D4D4D" stroke-width="0.4" stroke-miterlimit="10"/>
<path d="M49.0771 69.9072C-84.1943 200.433 -84.1943 330.953 49.0771 461.465" stroke="#4D4D4D" stroke-width="0.4" stroke-miterlimit="10"/>
<path d="M53.2352 66.1294C-77.1976 199.174 -77.1976 332.212 53.2352 465.244" stroke="#4D4D4D" stroke-width="0.4" stroke-miterlimit="10"/>
<path d="M57.3933 62.4312C-70.2675 197.942 -70.2675 333.445 57.3933 468.942" stroke="#4D4D4D" stroke-width="0.4" stroke-miterlimit="10"/>
<path d="M61.5713 58.8125C-63.3307 196.735 -63.3307 334.671 61.5713 472.62" stroke="#4D4D4D" stroke-width="0.4" stroke-miterlimit="10"/>
<path d="M65.7293 55.2739C-56.3873 195.555 -56.3873 335.83 65.7293 476.099" stroke="#4D4D4D" stroke-width="0.4" stroke-miterlimit="10"/>
<path d="M69.9674 51.7759C-49.3772 194.376 -49.3772 336.977 69.9674 479.577" stroke="#4D4D4D" stroke-width="0.4" stroke-miterlimit="10"/>
<path d="M73.9655 48.457C-42.5404 193.27 -42.5404 338.096 73.9655 482.935" stroke="#4D4D4D" stroke-width="0.4" stroke-miterlimit="10"/>
<path d="M78.2235 45.1587C-35.5903 192.17 -35.5903 339.195 78.2235 486.234" stroke="#4D4D4D" stroke-width="0.4" stroke-miterlimit="10"/>
<path d="M82.3816 41.9199C-28.6469 191.091 -28.6469 340.268 82.3816 489.452" stroke="#4D4D4D" stroke-width="0.4" stroke-miterlimit="10"/>
<path d="M86.5397 38.7817C-21.69 190.058 -21.69 341.321 86.5397 492.571" stroke="#4D4D4D" stroke-width="0.4" stroke-miterlimit="10"/>
<path d="M90.7178 35.7832C-14.7533 189.045 -14.7533 342.354 90.7178 495.71" stroke="#4D4D4D" stroke-width="0.4" stroke-miterlimit="10"/>
<path d="M94.8758 32.7446C-7.82318 188.033 -7.82318 343.327 94.8758 498.628" stroke="#4D4D4D" stroke-width="0.4" stroke-miterlimit="10"/>
<path d="M99.0338 29.7861C-0.919794 187.046 -0.919794 344.307 99.0338 501.567" stroke="#4D4D4D" stroke-width="0.4" stroke-miterlimit="10"/>
<path d="M103.192 27.0273C6.06376 186.14 6.06376 345.246 103.192 504.346" stroke="#4D4D4D" stroke-width="0.4" stroke-miterlimit="10"/>
<path d="M107.37 24.2886C13.0005 185.214 13.0005 346.146 107.37 507.084" stroke="#4D4D4D" stroke-width="0.4" stroke-miterlimit="10"/>
<path d="M111.528 21.6294C19.9306 184.327 19.9306 347.038 111.528 509.763" stroke="#4D4D4D" stroke-width="0.4" stroke-miterlimit="10"/>
<path d="M115.686 19.0508C26.874 183.468 26.874 347.898 115.686 512.342" stroke="#4D4D4D" stroke-width="0.4" stroke-miterlimit="10"/>
<path d="M119.944 16.5322C33.8375 182.628 33.8375 348.731 119.944 514.841" stroke="#4D4D4D" stroke-width="0.4" stroke-miterlimit="10"/>
<path d="M123.942 14.1138C40.7142 181.823 40.7142 349.538 123.942 517.26" stroke="#4D4D4D" stroke-width="0.4" stroke-miterlimit="10"/>
<path d="M128.18 11.7944C47.6977 181.049 47.6977 350.304 128.18 519.559" stroke="#4D4D4D" stroke-width="0.4" stroke-miterlimit="10"/>
<path d="M132.338 9.51514C54.6278 180.289 54.6278 351.077 132.338 521.877" stroke="#4D4D4D" stroke-width="0.4" stroke-miterlimit="10"/>
<path d="M136.516 7.31665C61.5645 179.557 61.5645 351.803 136.516 524.057" stroke="#4D4D4D" stroke-width="0.4" stroke-miterlimit="10"/>
<path d="M140.675 5.21704C68.5081 178.856 68.5081 352.509 140.675 526.175" stroke="#4D4D4D" stroke-width="0.4" stroke-miterlimit="10"/>
<path d="M144.833 3.19873C75.4515 178.184 75.4515 353.183 144.833 528.195" stroke="#4D4D4D" stroke-width="0.4" stroke-miterlimit="10"/>
<path d="M148.991 1.23975C82.3549 177.545 82.3549 353.843 148.991 530.134" stroke="#4D4D4D" stroke-width="0.4" stroke-miterlimit="10"/>
<path d="M153.169 -0.619629C89.3184 176.911 89.3184 354.456 153.169 532.013" stroke="#4D4D4D" stroke-width="0.4" stroke-miterlimit="10"/>
<path d="M157.327 -2.41895C96.2618 176.311 96.2618 355.048 157.327 533.792" stroke="#4D4D4D" stroke-width="0.4" stroke-miterlimit="10"/>
<path d="M161.485 -4.19824C103.139 175.718 103.139 355.635 161.485 535.551" stroke="#4D4D4D" stroke-width="0.4" stroke-miterlimit="10"/>
<path d="M165.643 -5.75732C110.149 175.225 110.149 356.188 165.643 537.131" stroke="#4D4D4D" stroke-width="0.4" stroke-miterlimit="10"/>
<path d="M169.921 -7.29639C117.105 174.686 117.105 356.681 169.921 538.69" stroke="#4D4D4D" stroke-width="0.4" stroke-miterlimit="10"/>
<path d="M173.919 -8.77637C124.009 174.192 124.009 357.167 173.919 540.149" stroke="#4D4D4D" stroke-width="0.4" stroke-miterlimit="10"/>
<path d="M178.137 -10.1953C130.959 173.719 130.959 357.634 178.137 541.549" stroke="#4D4D4D" stroke-width="0.4" stroke-miterlimit="10"/>
<path d="M182.315 -11.4751C137.896 173.292 137.896 358.067 182.315 542.848" stroke="#4D4D4D" stroke-width="0.4" stroke-miterlimit="10"/>
<path d="M186.473 -12.7141C144.832 170.551 144.832 360.822 186.473 544.087" stroke="#4D4D4D" stroke-width="0.4" stroke-miterlimit="10"/>
<path d="M190.631 -13.8542C151.77 170.487 151.77 360.905 190.631 545.246" stroke="#4D4D4D" stroke-width="0.4" stroke-miterlimit="10"/>
<path d="M194.789 -14.9338C158.706 170.406 158.706 360.966 194.789 546.306" stroke="#4D4D4D" stroke-width="0.4" stroke-miterlimit="10"/>
<path d="M198.967 -15.9333C165.643 170.334 165.643 361.038 198.967 547.305" stroke="#4D4D4D" stroke-width="0.4" stroke-miterlimit="10"/>
<path d="M203.126 -16.8323C172.6 170.283 172.6 361.11 203.126 548.225" stroke="#4D4D4D" stroke-width="0.4" stroke-miterlimit="10"/>
<path d="M207.284 -17.6714C179.536 170.215 179.536 361.159 207.284 549.045" stroke="#4D4D4D" stroke-width="0.4" stroke-miterlimit="10"/>
<path d="M211.442 -18.4316C186.473 170.158 186.473 361.215 211.442 549.804" stroke="#4D4D4D" stroke-width="0.4" stroke-miterlimit="10"/>
<path d="M215.62 -19.1116C193.41 170.104 193.41 361.268 215.62 550.484" stroke="#4D4D4D" stroke-width="0.4" stroke-miterlimit="10"/>
<path d="M219.778 -19.6909C200.347 170.071 200.347 361.322 219.778 551.084" stroke="#4D4D4D" stroke-width="0.4" stroke-miterlimit="10"/>
<path d="M223.896 -20.1912C207.248 170.023 207.248 361.329 223.896 551.543" stroke="#4D4D4D" stroke-width="0.4" stroke-miterlimit="10"/>
<path d="M228.094 -20.6504C214.221 169.989 214.221 361.384 228.094 552.024" stroke="#4D4D4D" stroke-width="0.4" stroke-miterlimit="10"/>
<path d="M232.272 -21.0107C221.157 169.959 221.157 361.413 232.272 552.383" stroke="#4D4D4D" stroke-width="0.4" stroke-miterlimit="10"/>
<path d="M236.43 -21.2903C228.074 170.021 228.074 361.339 236.43 552.663" stroke="#4D4D4D" stroke-width="0.4" stroke-miterlimit="10"/>
<path d="M240.588 -21.4902C235.031 169.968 235.031 361.419 240.588 552.863" stroke="#4D4D4D" stroke-width="0.4" stroke-miterlimit="10"/>
<path d="M244.746 -21.6099C241.987 169.928 241.987 361.459 244.746 552.983" stroke="#4D4D4D" stroke-width="0.4" stroke-miterlimit="10"/>
<path d="M248.924 -21.6499V553.023" stroke="#4D4D4D" stroke-width="0.4" stroke-miterlimit="10"/>
<path d="M253.082 -21.6099C255.868 169.928 255.868 361.459 253.082 552.983" stroke="#4D4D4D" stroke-width="0.4" stroke-miterlimit="10"/>
<path d="M257.24 -21.4902C262.798 169.968 262.798 361.419 257.24 552.863" stroke="#4D4D4D" stroke-width="0.4" stroke-miterlimit="10"/>
<path d="M261.398 -21.2903C269.741 170.021 269.741 361.339 261.398 552.663" stroke="#4D4D4D" stroke-width="0.4" stroke-miterlimit="10"/>
<path d="M265.577 -21.0107C276.671 169.96 276.671 361.413 265.577 552.383" stroke="#4D4D4D" stroke-width="0.4" stroke-miterlimit="10"/>
<path d="M269.735 -20.6504C283.608 169.989 283.608 361.384 269.735 552.024" stroke="#4D4D4D" stroke-width="0.4" stroke-miterlimit="10"/>
<path d="M273.873 -20.1912C290.52 170.023 290.52 361.329 273.873 551.543" stroke="#4D4D4D" stroke-width="0.4" stroke-miterlimit="10"/>
<path d="M278.071 -19.6909C297.482 170.072 297.482 361.321 278.071 551.084" stroke="#4D4D4D" stroke-width="0.4" stroke-miterlimit="10"/>
<path d="M282.229 -19.1116C304.418 170.105 304.418 361.267 282.229 550.484" stroke="#4D4D4D" stroke-width="0.4" stroke-miterlimit="10"/>
<path d="M286.387 -18.4316C311.375 170.156 311.375 361.217 286.387 549.804" stroke="#4D4D4D" stroke-width="0.4" stroke-miterlimit="10"/>
<path d="M290.545 -17.6714C318.312 170.214 318.312 361.16 290.545 549.045" stroke="#4D4D4D" stroke-width="0.4" stroke-miterlimit="10"/>
<path d="M294.723 -16.8323C325.249 170.283 325.249 361.11 294.723 548.225" stroke="#4D4D4D" stroke-width="0.4" stroke-miterlimit="10"/>
<path d="M298.881 -15.9333C332.185 170.336 332.185 361.036 298.881 547.305" stroke="#4D4D4D" stroke-width="0.4" stroke-miterlimit="10"/>
<path d="M303.039 -14.9338C339.122 170.406 339.122 360.966 303.039 546.306" stroke="#4D4D4D" stroke-width="0.4" stroke-miterlimit="10"/>
<path d="M307.197 -13.8542C346.059 170.487 346.059 360.905 307.197 545.246" stroke="#4D4D4D" stroke-width="0.4" stroke-miterlimit="10"/>
<path d="M311.375 -12.7141C352.996 170.553 352.996 360.82 311.375 544.087" stroke="#4D4D4D" stroke-width="0.4" stroke-miterlimit="10"/>
<path d="M315.533 -11.4751C359.953 173.306 359.953 358.08 315.533 542.848" stroke="#4D4D4D" stroke-width="0.4" stroke-miterlimit="10"/>
<path d="M319.691 -10.1953C366.896 173.719 366.896 357.634 319.691 541.549" stroke="#4D4D4D" stroke-width="0.4" stroke-miterlimit="10"/>
<path d="M323.85 -8.77637C373.826 174.192 373.826 357.167 323.85 540.149" stroke="#4D4D4D" stroke-width="0.4" stroke-miterlimit="10"/>
<path d="M328.028 -7.29639C380.763 174.699 380.763 356.695 328.028 538.69" stroke="#4D4D4D" stroke-width="0.4" stroke-miterlimit="10"/>
<path d="M332.186 -5.75732C387.706 175.225 387.706 356.188 332.186 537.131" stroke="#4D4D4D" stroke-width="0.4" stroke-miterlimit="10"/>
<path d="M336.344 -4.19824C394.65 175.718 394.65 355.635 336.344 535.551" stroke="#4D4D4D" stroke-width="0.4" stroke-miterlimit="10"/>
<path d="M340.522 -2.41895C401.574 176.325 401.574 355.062 340.522 533.792" stroke="#4D4D4D" stroke-width="0.4" stroke-miterlimit="10"/>
<path d="M344.68 -0.619629C408.517 176.911 408.517 354.456 344.68 532.013" stroke="#4D4D4D" stroke-width="0.4" stroke-miterlimit="10"/>
<path d="M348.838 1.23975C415.474 177.545 415.474 353.843 348.838 530.134" stroke="#4D4D4D" stroke-width="0.4" stroke-miterlimit="10"/>
<path d="M352.996 3.17822C422.377 178.19 422.377 353.196 352.996 528.194" stroke="#4D4D4D" stroke-width="0.4" stroke-miterlimit="10"/>
<path d="M357.174 5.21704C429.341 178.856 429.341 352.509 357.174 526.175" stroke="#4D4D4D" stroke-width="0.4" stroke-miterlimit="10"/>
<path d="M361.332 7.31665C436.297 179.557 436.297 351.803 361.332 524.057" stroke="#4D4D4D" stroke-width="0.4" stroke-miterlimit="10"/>
<path d="M365.49 9.51514C443.214 180.302 443.214 351.09 365.49 521.877" stroke="#4D4D4D" stroke-width="0.4" stroke-miterlimit="10"/>
<path d="M369.648 11.7944C450.157 181.049 450.157 350.304 369.648 519.559" stroke="#4D4D4D" stroke-width="0.4" stroke-miterlimit="10"/>
<path d="M373.826 14.1138C457.094 181.823 457.094 349.538 373.826 517.26" stroke="#4D4D4D" stroke-width="0.4" stroke-miterlimit="10"/>
<path d="M377.984 16.5322C464.024 182.642 464.024 348.745 377.984 514.841" stroke="#4D4D4D" stroke-width="0.4" stroke-miterlimit="10"/>
<path d="M382.142 19.0508C470.968 183.481 470.968 347.911 382.142 512.342" stroke="#4D4D4D" stroke-width="0.4" stroke-miterlimit="10"/>
<path d="M386.321 21.6294C477.945 184.327 477.945 347.038 386.321 509.763" stroke="#4D4D4D" stroke-width="0.4" stroke-miterlimit="10"/>
<path d="M390.479 24.2886C484.835 185.214 484.835 346.146 390.479 507.084" stroke="#4D4D4D" stroke-width="0.4" stroke-miterlimit="10"/>
<path d="M394.637 27.0273C491.778 186.14 491.778 345.246 394.637 504.346" stroke="#4D4D4D" stroke-width="0.4" stroke-miterlimit="10"/>
<path d="M398.795 29.7861C498.748 187.046 498.748 344.307 398.795 501.567" stroke="#4D4D4D" stroke-width="0.4" stroke-miterlimit="10"/>
<path d="M402.973 32.7446C505.658 188.046 505.658 343.34 402.973 498.628" stroke="#4D4D4D" stroke-width="0.4" stroke-miterlimit="10"/>
<path d="M407.131 35.7832C512.602 189.045 512.602 342.354 407.131 495.71" stroke="#4D4D4D" stroke-width="0.4" stroke-miterlimit="10"/>
<path d="M411.289 38.7817C519.532 190.058 519.532 341.321 411.289 492.571" stroke="#4D4D4D" stroke-width="0.4" stroke-miterlimit="10"/>
<path d="M415.447 41.9199C526.475 191.117 526.475 340.295 415.447 489.452" stroke="#4D4D4D" stroke-width="0.4" stroke-miterlimit="10"/>
<path d="M419.625 45.1392C533.412 192.178 533.412 339.209 419.625 486.234" stroke="#4D4D4D" stroke-width="0.4" stroke-miterlimit="10"/>
<path d="M423.803 48.4375C540.362 193.264 540.362 338.096 423.803 482.936" stroke="#4D4D4D" stroke-width="0.4" stroke-miterlimit="10"/>
<path d="M427.941 51.7759C547.312 194.376 547.312 336.977 427.941 479.577" stroke="#4D4D4D" stroke-width="0.4" stroke-miterlimit="10"/>
<path d="M432.099 55.2739C554.242 195.555 554.242 335.83 432.099 476.099" stroke="#4D4D4D" stroke-width="0.4" stroke-miterlimit="10"/>
<path d="M436.277 58.8125C561.179 196.735 561.179 334.671 436.277 472.62" stroke="#4D4D4D" stroke-width="0.4" stroke-miterlimit="10"/>
<path d="M440.435 62.4312C568.123 197.928 568.123 333.432 440.435 468.942" stroke="#4D4D4D" stroke-width="0.4" stroke-miterlimit="10"/>
<path d="M444.593 66.1294C575.053 199.174 575.053 332.212 444.593 465.244" stroke="#4D4D4D" stroke-width="0.4" stroke-miterlimit="10"/>
<path d="M448.752 69.9072C582.023 200.433 582.023 330.959 448.752 461.485" stroke="#4D4D4D" stroke-width="0.4" stroke-miterlimit="10"/>
<path d="M452.93 73.7656C588.866 201.706 588.866 329.647 452.93 457.587" stroke="#4D4D4D" stroke-width="0.4" stroke-miterlimit="10"/>
</g>
</svg>
