<svg width="48" height="49" viewBox="0 0 48 49" fill="none" xmlns="http://www.w3.org/2000/svg">
<path d="M13.266 20.7C14.878 20.7 16.332 19.808 17.328 18.54C18.8805 16.5592 20.8294 14.9243 23.05 13.74C24.496 12.972 25.75 11.828 26.356 10.31C26.7816 9.24645 27.0002 8.11145 27 6.96595V5.69995C27 5.30213 27.158 4.9206 27.4393 4.63929C27.7207 4.35799 28.1022 4.19995 28.5 4.19995C29.6935 4.19995 30.8381 4.67406 31.682 5.51797C32.5259 6.36188 33 7.50648 33 8.69995C33 11.004 32.48 13.186 31.554 15.136C31.022 16.252 31.768 17.7 33.004 17.7M33.004 17.7H39.256C41.308 17.7 43.146 19.088 43.364 21.13C43.454 21.974 43.5 22.83 43.5 23.7C43.5083 29.1726 41.6381 34.4824 38.202 38.742C37.426 39.706 36.228 40.2 34.992 40.2H26.96C25.994 40.2 25.032 40.044 24.114 39.74L17.886 37.66C16.9682 37.3547 16.0072 37.1994 15.04 37.2H11.808M33.004 17.7H28.5M11.808 37.2C11.974 37.61 12.154 38.0099 12.348 38.4039C12.742 39.2039 12.192 40.2 11.302 40.2H9.48601C7.70801 40.2 6.06001 39.164 5.54201 37.464C4.8493 35.1904 4.49813 32.8266 4.50001 30.45C4.50001 27.344 5.09001 24.378 6.16201 21.654C6.77401 20.106 8.33401 19.2 10 19.2H12.106C13.05 19.2 13.596 20.312 13.106 21.12C11.3978 23.9319 10.4969 27.1598 10.502 30.45C10.502 32.838 10.966 35.116 11.81 37.2H11.808Z" stroke="#154782" stroke-width="1.5" stroke-linecap="round" stroke-linejoin="round"/>
</svg>
