<svg width="600" height="600" viewBox="0 0 600 600" fill="none" xmlns="http://www.w3.org/2000/svg">
<path d="M73.8203 102.804L80.8006 95.067C96.6388 79.0876 97.5847 78.1321 108.557 68.9299C114.733 64.0846 123.039 57.7135 129.418 53.1335C171.551 24.0714 230.259 3.39221 288.123 0.37566C296.8 -0.075061 305.153 -0.114959 313.145 0.227777L315.375 0.335757C336.088 1.95319 337.33 2.04943 349.908 4.12463C372.121 8.55672 373.444 8.81495 386.652 12.7494C363.263 5.69277 334.774 2.51189 302.468 4.19505C211.992 8.91354 119.751 50.3071 73.8203 102.804Z" fill="#E7F1FF"/>
<path d="M8.04883 230.493L12.7923 213.02C15.9116 203.987 20.0683 191.926 23.6594 183.071L25.2413 179.409C60.7788 98.7767 194.12 28.2271 324.401 21.4381C385.763 18.2408 435.569 29.753 467.677 51.2303L483.13 62.3716C491.19 69.0644 501.858 78.0952 509.512 85.248C476.871 53.6694 416.154 35.7532 338.173 39.8191C196.446 47.2067 51.367 124.419 14.1278 212.272C11.5038 218.469 9.48525 224.542 8.04883 230.493Z" fill="#E7F1FF"/>
<path d="M6.61631 363.094C4.70811 352.154 2.27182 337.531 1.04194 326.496L0.0585045 310.892C-0.467246 296.333 2.54174 280.781 9.43988 264.505C49.5049 169.981 205.597 86.9094 358.086 78.9584C458.077 73.7493 531.689 102.135 559.22 148.945C573.418 175.716 574.573 177.903 581.696 196.874C561.039 140.726 481.588 105.377 369.802 111.201C214.304 119.305 55.1286 204.019 14.2726 300.413C4.74567 322.885 2.49479 344.011 6.61631 363.094Z" fill="#E7F1FF"/>
<path d="M62.7618 483.793C45.4778 459.611 44.0672 457.635 34.6412 440.162C21.7861 416.072 20.7417 387.393 34.0263 356.06C74.3542 260.914 231.476 177.288 384.97 169.293C509.798 162.786 593.784 208.292 599.105 276.691C599.427 284.912 600.049 295.866 599.995 304.087C599.596 311.58 599.321 321.587 598.605 329.057C606.032 254.435 522.031 202.926 392.272 209.686C244.233 217.4 92.6897 298.051 53.7959 389.818C38.5303 425.831 42.8842 458.21 62.7618 483.793Z" fill="#E7F1FF"/>
<path d="M169.155 569.977L166.17 568.509C143.877 556.429 139.863 554.253 121.296 541.015C87.509 516.076 75.5223 479.33 93.4472 437.04C128.626 354.044 265.675 281.104 399.563 274.127C531.743 267.24 611.417 327.207 579.579 408.595L576.218 416.879C564.332 442.326 563.616 443.85 554.247 459.102C557.974 453.179 561.143 447.174 563.717 441.106C595.596 365.889 523.075 310.037 401.725 316.361C280.384 322.688 156.169 388.791 124.286 464.013C104.946 509.653 124.039 548.164 169.155 569.977Z" fill="#E7F1FF"/>
<path d="M322.605 598.502C402.052 594.361 483.37 551.08 504.247 501.834C525.125 452.586 477.64 416.026 398.196 420.167C318.749 424.308 237.426 467.589 216.551 516.835C195.678 566.081 243.16 602.646 322.605 598.502C320.298 599.106 317.974 599.467 315.641 599.589C296.113 600.122 295.348 600.146 284.5 599.613C279.299 599.2 272.351 598.772 267.166 598.218C195.246 590.418 156.477 550.313 178.235 498.982C203.851 438.55 303.638 385.44 401.127 380.358C498.614 375.278 556.879 420.15 531.262 480.58C523.153 499.707 507.608 518.105 487.066 534.476C480.64 539.336 471.979 545.702 465.346 550.268C449.402 560.276 449.402 560.276 440.774 564.881C425.129 572.774 425.129 572.774 417.029 576.215C401.763 582.326 401.763 582.326 393.462 585.077C385.665 587.462 371.155 591.892 369.345 591.892C352.932 595.422 352.289 595.559 343.785 596.798C326.057 598.988 325.365 599.077 315.639 599.589C317.974 599.467 320.295 599.106 322.605 598.502Z" fill="#E7F1FF"/>
<path d="M356.647 569.475C383.048 568.099 410.082 553.716 417.017 537.347C423.953 520.978 408.173 508.83 381.768 510.205C355.364 511.583 328.332 525.966 321.396 542.335C314.461 558.7 330.24 570.853 356.647 569.475C352.491 575.907 348.181 581.285 343.755 585.642C295.4 588.166 266.5 565.911 279.205 535.936C291.912 505.961 341.408 479.617 389.763 477.096C438.118 474.579 467.02 496.831 454.313 526.807C441.61 556.782 392.11 583.123 343.755 585.642C348.181 581.285 352.493 575.907 356.647 569.475Z" fill="#E7F1FF"/>
</svg>
